<svg width="120" height="41" viewBox="0 0 120 41" fill="none" xmlns="http://www.w3.org/2000/svg">
<g clip-path="url(#clip0)">
<path d="M110.13 0.140015H7.52C6.84976 0.14987 6.18122 0.210039 5.52 0.320015C4.85563 0.44825 4.21486 0.677581 3.62 1.00001C3.02525 1.29556 2.47898 1.67996 2 2.14001C1.51962 2.6109 1.12085 3.15836 0.819997 3.76001C0.515091 4.36136 0.302698 5.00528 0.189997 5.67001C0.078401 6.33087 0.0215413 6.99981 0.0199966 7.67001C0.0199966 7.97002 0.0199966 8.28001 0.0199966 8.59001V31.7C0.0199966 32.01 0.0199966 32.31 0.0199966 32.62C0.0220819 33.2902 0.0789378 33.9591 0.189997 34.62C0.304254 35.2812 0.516596 35.9216 0.819997 36.52C1.11972 37.1224 1.51862 37.67 2 38.14C2.47088 38.6204 3.01834 39.0192 3.62 39.32C4.21597 39.6293 4.8573 39.842 5.52 39.95C6.18122 40.06 6.84976 40.1202 7.52 40.13H112.14C112.81 40.1202 113.479 40.06 114.14 39.95C114.805 39.8404 115.45 39.6278 116.05 39.32C116.65 39.0165 117.197 38.6181 117.67 38.14C118.144 37.6674 118.542 37.1243 118.85 36.53C119.15 35.9311 119.359 35.2907 119.47 34.63C119.579 33.9687 119.64 33.3002 119.65 32.63C119.65 32.32 119.65 32.02 119.65 31.71V8.59001C119.65 8.28001 119.65 7.97002 119.65 7.67001C119.64 6.99978 119.58 6.33124 119.47 5.67001C119.361 5.00574 119.152 4.3618 118.85 3.76001C118.229 2.55937 117.251 1.58104 116.05 0.960015C115.448 0.659687 114.804 0.450729 114.14 0.340015C113.479 0.225113 112.81 0.164908 112.14 0.160015H110.14L110.13 0.140015Z" fill="black"/>
<path d="M8.44 39.27H7.54C6.91312 39.2635 6.28778 39.2066 5.67 39.1C5.0885 39.0031 4.5253 38.8176 4 38.55C3.48764 38.2907 3.01871 37.9534 2.61 37.55C2.2011 37.1422 1.86312 36.6691 1.61 36.15C1.34378 35.6312 1.15831 35.0748 1.06 34.5C0.95734 33.8716 0.900523 33.2366 0.889999 32.6C0.889999 32.39 0.889999 31.69 0.889999 31.69V8.59C0.889999 8.59 0.889999 7.9 0.889999 7.69C0.898589 7.06364 0.952059 6.43871 1.05 5.82C1.1467 5.24163 1.33222 4.68169 1.6 4.16C1.85607 3.64271 2.19372 3.17 2.6 2.76C3.01227 2.35642 3.48453 2.01909 4 1.76C4.5241 1.48748 5.08756 1.29853 5.67 1.2C6.28696 1.08331 6.91231 1.01642 7.54 1H112.13C112.753 1.00869 113.375 1.06216 113.99 1.16C114.57 1.2628 115.132 1.44801 115.66 1.71C116.695 2.24767 117.537 3.09325 118.07 4.13C118.329 4.65091 118.511 5.20673 118.61 5.78C118.712 6.40514 118.768 7.03675 118.78 7.67V8.56C118.78 8.93 118.78 9.29 118.78 9.65V30.61C118.78 30.97 118.78 31.33 118.78 31.68V32.61C118.768 33.2333 118.711 33.8549 118.61 34.47C118.515 35.0507 118.333 35.6138 118.07 36.14C117.81 36.6487 117.472 37.1142 117.07 37.52C116.659 37.9254 116.187 38.2629 115.67 38.52C115.148 38.7846 114.588 38.9668 114.01 39.06C113.392 39.1662 112.767 39.223 112.14 39.23H8.44V39.27Z" fill="white"/>
<path d="M25 20C25.009 19.1327 25.2387 18.282 25.6673 17.528C26.0959 16.774 26.7094 16.1414 27.45 15.69C26.9803 15.0187 26.3607 14.4659 25.6405 14.0754C24.9202 13.6849 24.1189 13.4673 23.3 13.44C21.55 13.26 19.86 14.44 18.97 14.44C18.08 14.44 16.69 13.44 15.22 13.44C14.264 13.47 13.332 13.7474 12.5153 14.2451C11.6985 14.7429 11.0248 15.444 10.56 16.28C8.56 19.76 10.05 24.88 11.98 27.69C12.98 29.07 14.07 30.61 15.54 30.55C17.01 30.49 17.54 29.63 19.27 29.63C21 29.63 21.5 30.55 23 30.52C24.5 30.49 25.52 29.13 26.45 27.74C27.1301 26.7859 27.6533 25.7292 28 24.61C27.104 24.219 26.3424 23.5739 25.8092 22.7546C25.276 21.9352 24.9946 20.9776 25 20Z" fill="black"/>
<path d="M22.16 11.62C23.0006 10.6089 23.4164 9.31132 23.32 8C22.0369 8.13716 20.8521 8.75099 20 9.72C19.5818 10.1949 19.2615 10.7476 19.0573 11.3464C18.8531 11.9453 18.7691 12.5786 18.81 13.21C19.4523 13.2161 20.0877 13.0761 20.668 12.8006C21.2484 12.5252 21.7585 12.1215 22.16 11.62Z" fill="black"/>
<path d="M42.3 27.28H37.57L36.43 30.64H34.43L38.91 18.22H41L45.49 30.64H43.49L42.3 27.28ZM38.06 25.73H41.81L40 20.29H39.95L38.06 25.73Z" fill="black"/>
<path d="M55.16 26.11C55.16 28.93 53.65 30.73 51.38 30.73C50.8044 30.7619 50.2314 30.6305 49.7272 30.3509C49.223 30.0714 48.808 29.6551 48.53 29.15V33.63H46.63V21.63H48.43V23.13C48.7231 22.6279 49.1463 22.2142 49.655 21.9326C50.1636 21.651 50.7389 21.5119 51.32 21.53C53.64 21.49 55.16 23.31 55.16 26.11ZM53.25 26.11C53.25 24.28 52.25 23.11 50.86 23.11C49.47 23.11 48.48 24.34 48.48 26.11C48.48 27.88 49.48 29.16 50.86 29.16C52.24 29.16 53.25 27.96 53.25 26.11Z" fill="black"/>
<path d="M65.12 26.11C65.12 28.93 63.62 30.73 61.35 30.73C60.7732 30.7692 60.1974 30.641 59.6918 30.3607C59.1862 30.0804 58.7723 29.66 58.5 29.15V33.63H56.6V21.63H58.39V23.13C58.6807 22.628 59.102 22.2141 59.6091 21.9323C60.1162 21.6506 60.6902 21.5116 61.27 21.53C63.61 21.49 65.12 23.31 65.12 26.11ZM63.21 26.11C63.21 24.28 62.27 23.11 60.82 23.11C59.37 23.11 58.45 24.34 58.45 26.11C58.45 27.88 59.4 29.16 60.82 29.16C62.24 29.16 63.21 28 63.21 26.11Z" fill="black"/>
<path d="M71.71 27.18C71.85 28.41 73.04 29.18 74.71 29.18C76.38 29.18 77.4 28.37 77.4 27.26C77.4 26.15 76.72 25.72 75.11 25.32L73.47 25C71.19 24.45 70.13 23.38 70.13 21.65C70.13 19.49 72 18 74.65 18C77.3 18 79.08 19.48 79.14 21.62H77.26C77.15 20.38 76.12 19.62 74.63 19.62C73.14 19.62 72.1 20.38 72.1 21.48C72.1 22.36 72.76 22.87 74.36 23.27L75.73 23.61C78.28 24.21 79.33 25.23 79.33 27.05C79.33 29.37 77.48 30.83 74.54 30.83C71.79 30.83 69.93 29.41 69.81 27.16L71.71 27.18Z" fill="black"/>
<path d="M83.35 19.44V21.59H85.07V23.06H83.35V28.06C83.35 28.83 83.69 29.2 84.45 29.2C84.65 29.2 84.86 29.2 85.06 29.15V30.62C84.7301 30.6794 84.3951 30.7062 84.06 30.7C82.22 30.7 81.51 30.01 81.51 28.26V23.06H80.16V21.59H81.48V19.44H83.35Z" fill="black"/>
<path d="M86.06 26.11C86.06 23.26 87.74 21.47 90.36 21.47C92.98 21.47 94.65 23.26 94.65 26.11C94.65 28.96 93 30.75 90.36 30.75C87.72 30.75 86.06 29 86.06 26.11ZM92.76 26.11C92.76 24.16 91.86 23.01 90.36 23.01C88.86 23.01 88 24.17 88 26.11C88 28.05 88.89 29.22 90.4 29.22C91.91 29.22 92.8 28.08 92.8 26.11H92.76Z" fill="black"/>
<path d="M96.19 21.59H98V23.13C98.121 22.6485 98.4033 22.2231 98.8001 21.9246C99.1968 21.6262 99.6839 21.4728 100.18 21.49C100.392 21.4881 100.604 21.5116 100.81 21.56V23.3C100.541 23.2188 100.261 23.1816 99.98 23.19C99.7303 23.1752 99.4802 23.2106 99.2444 23.2942C99.0087 23.3777 98.792 23.5078 98.6074 23.6765C98.4228 23.8453 98.2739 24.0494 98.1696 24.2767C98.0653 24.504 98.0076 24.75 98 25C97.995 25.0966 97.995 25.1934 98 25.29V30.66H96.19V21.59Z" fill="black"/>
<path d="M109.38 28C109.13 29.64 107.53 30.77 105.48 30.77C102.85 30.77 101.22 29.01 101.22 26.18C101.22 23.35 102.86 21.49 105.41 21.49C107.96 21.49 109.49 23.22 109.49 25.96V26.6H103.09V26.71C103.037 27.3326 103.232 27.951 103.633 28.4304C104.034 28.9098 104.608 29.2116 105.23 29.27C105.33 29.28 105.43 29.28 105.53 29.27C105.97 29.3194 106.414 29.2215 106.792 28.9917C107.17 28.7618 107.461 28.4131 107.62 28H109.38ZM103.1 25.3H107.63C107.66 24.7223 107.46 24.1561 107.074 23.7252C106.688 23.2943 106.148 23.0336 105.57 23H105.41C105.108 22.9974 104.809 23.0543 104.53 23.1676C104.25 23.2809 103.996 23.4482 103.781 23.6601C103.567 23.8719 103.396 24.1241 103.279 24.4021C103.162 24.6801 103.101 24.9784 103.1 25.28V25.3Z" fill="black"/>
<path d="M35.5 8.76001H37.93C38.2981 8.74212 38.6651 8.81375 38.9995 8.96876C39.3339 9.12376 39.6257 9.35752 39.85 9.65001C40.2788 10.2487 40.4937 10.9743 40.46 11.71C40.4685 12.3126 40.3456 12.9097 40.1 13.46C39.9257 13.8885 39.6219 14.2518 39.2311 14.4992C38.8402 14.7466 38.3818 14.8658 37.92 14.84H35.5V8.76001ZM37.77 14.14C37.9967 14.1459 38.2229 14.1155 38.44 14.05C38.7597 13.937 39.0314 13.7183 39.21 13.43C39.3831 13.1416 39.4985 12.8224 39.55 12.49C39.588 12.2787 39.6081 12.0647 39.61 11.85C39.6482 11.2333 39.4983 10.6196 39.18 10.09C39.0139 9.87627 38.797 9.70754 38.5489 9.59923C38.3009 9.49093 38.0296 9.4465 37.76 9.47001H36.33V14.14H37.77Z" fill="black" stroke="black" stroke-width="0.2" stroke-miterlimit="10"/>
<path d="M41.91 8.76001H42.67V9.60001H41.91V8.76001ZM41.91 10.43H42.67V14.84H41.91V10.43Z" fill="black" stroke="black" stroke-width="0.2" stroke-miterlimit="10"/>
<path d="M44.66 13.45C44.6676 13.6543 44.7335 13.8521 44.85 14.02C44.9787 14.1516 45.1356 14.2523 45.3087 14.3147C45.4819 14.377 45.6669 14.3994 45.85 14.38C46.1082 14.3861 46.3634 14.324 46.59 14.2C46.6928 14.1489 46.778 14.0683 46.835 13.9686C46.892 13.8689 46.9181 13.7546 46.91 13.64C46.9127 13.5522 46.8907 13.4653 46.8465 13.3893C46.8023 13.3132 46.7377 13.2512 46.66 13.21C46.4481 13.1167 46.2268 13.0463 46 13L45.4 12.85C45.1004 12.7931 44.8128 12.6848 44.55 12.53C44.4003 12.4497 44.2755 12.3298 44.1891 12.1835C44.1027 12.0371 44.058 11.8699 44.06 11.7C44.056 11.5094 44.0953 11.3204 44.175 11.1472C44.2547 10.9739 44.3727 10.8211 44.52 10.7C44.8699 10.4266 45.3065 10.2882 45.75 10.31C46.0242 10.285 46.3005 10.3255 46.556 10.4281C46.8116 10.5306 47.0391 10.6924 47.22 10.9C47.4016 11.1265 47.4972 11.4099 47.49 11.7H46.79C46.7694 11.5341 46.7075 11.3759 46.61 11.24C46.4844 11.1317 46.3381 11.0501 46.1799 11.0002C46.0217 10.9504 45.855 10.9333 45.69 10.95C45.4624 10.9389 45.2365 10.9945 45.04 11.11C44.97 11.1573 44.9131 11.2215 44.8746 11.2967C44.8362 11.3719 44.8174 11.4556 44.82 11.54C44.82 11.6363 44.8473 11.7305 44.8986 11.8119C44.9499 11.8933 45.0232 11.9585 45.11 12C45.2659 12.0865 45.4347 12.1473 45.61 12.18L46.11 12.3C46.4932 12.3724 46.8638 12.5004 47.21 12.68C47.3542 12.7793 47.4698 12.9147 47.5452 13.0726C47.6207 13.2305 47.6534 13.4055 47.64 13.58C47.6379 13.7687 47.5968 13.9549 47.5194 14.127C47.442 14.2991 47.3298 14.4533 47.19 14.58C46.7971 14.8928 46.3009 15.0463 45.8 15.01C45.5451 15.0363 45.2875 15.0099 45.0433 14.9325C44.799 14.8551 44.5732 14.7283 44.38 14.56C44.1199 14.25 43.9845 13.8544 44 13.45H44.66Z" fill="black" stroke="black" stroke-width="0.2" stroke-miterlimit="10"/>
<path d="M48.82 10.43H49.55V11C49.6794 10.8114 49.8462 10.6515 50.04 10.53C50.3043 10.3581 50.6148 10.2709 50.93 10.28C51.1728 10.2772 51.4132 10.3277 51.6344 10.4279C51.8556 10.5281 52.052 10.6756 52.21 10.86C52.5904 11.3224 52.78 11.9126 52.74 12.51C52.7805 12.8915 52.735 13.2773 52.607 13.6389C52.4789 14.0006 52.2715 14.329 52 14.6C51.6812 14.8594 51.2809 14.9975 50.87 14.99C50.5744 15.0011 50.2822 14.9246 50.03 14.77C49.8588 14.6541 49.7098 14.5085 49.59 14.34V16.61H48.84L48.82 10.43ZM51.63 13.9C51.896 13.5206 52.0264 13.0626 52 12.6C52.0083 12.2899 51.9574 11.981 51.85 11.69C51.7677 11.4703 51.6154 11.2838 51.4166 11.1591C51.2179 11.0344 50.9836 10.9785 50.75 11C50.5113 10.9916 50.2767 11.064 50.0843 11.2056C49.8919 11.3472 49.7529 11.5496 49.69 11.78C49.5851 12.1028 49.5344 12.4407 49.54 12.78C49.5323 13.077 49.5833 13.3727 49.69 13.65C49.7691 13.8637 49.9149 14.0461 50.1058 14.1704C50.2967 14.2947 50.5226 14.3542 50.75 14.34C50.921 14.3416 51.09 14.3025 51.243 14.226C51.396 14.1495 51.5286 14.0378 51.63 13.9Z" fill="black" stroke="black" stroke-width="0.2" stroke-miterlimit="10"/>
<path d="M57.24 10.85C57.448 11.0748 57.6076 11.3399 57.7091 11.6289C57.8106 11.9178 57.8517 12.2245 57.83 12.53C57.8469 13.16 57.6649 13.7793 57.31 14.3C57.1194 14.5396 56.873 14.7287 56.5923 14.8507C56.3115 14.9728 56.0052 15.024 55.7 15C55.4288 15.012 55.1583 14.9624 54.909 14.855C54.6596 14.7477 54.4377 14.5853 54.26 14.38C53.8815 13.9122 53.6891 13.321 53.72 12.72C53.6865 12.0787 53.8853 11.4467 54.28 10.94C54.4671 10.7224 54.701 10.5499 54.9643 10.4356C55.2275 10.3213 55.5132 10.2681 55.8 10.28C56.0659 10.2745 56.3302 10.3221 56.5774 10.42C56.8247 10.5179 57.0499 10.6641 57.24 10.85ZM56.77 13.85C56.9612 13.4615 57.0571 13.033 57.05 12.6C57.06 12.2558 56.9917 11.9139 56.85 11.6C56.7529 11.4032 56.5991 11.2399 56.4084 11.1312C56.2177 11.0225 55.9989 10.9733 55.78 10.99C55.5814 10.9751 55.3827 11.0158 55.206 11.1077C55.0293 11.1995 54.8818 11.3389 54.78 11.51C54.5711 11.8964 54.4676 12.331 54.48 12.77C54.4659 13.1839 54.57 13.5932 54.78 13.95C54.8904 14.1096 55.0411 14.2372 55.2167 14.3197C55.3923 14.4022 55.5867 14.4369 55.78 14.42C55.9892 14.4335 56.1973 14.3809 56.3749 14.2696C56.5526 14.1583 56.6908 13.9941 56.77 13.8V13.85Z" fill="black" stroke="black" stroke-width="0.2" stroke-miterlimit="10"/>
<path d="M59.17 10.41H59.87V11C60.0471 10.7641 60.2764 10.5724 60.54 10.44C60.7826 10.3215 61.0501 10.2632 61.32 10.27C61.5822 10.2479 61.8449 10.3058 62.0734 10.4361C62.302 10.5665 62.4856 10.7631 62.6 11C62.7322 11.3162 62.7936 11.6575 62.78 12V14.84H62V12.05C62.0083 11.8239 61.9674 11.5987 61.88 11.39C61.8157 11.2567 61.7124 11.1462 61.5838 11.0729C61.4552 10.9997 61.3074 10.9673 61.16 10.98C61.0173 10.961 60.8727 10.961 60.73 10.98C60.5136 11.0392 60.3234 11.1696 60.19 11.35C60.0683 11.4737 59.9849 11.63 59.95 11.8C59.9039 12.0202 59.8838 12.2451 59.89 12.47V14.79H59.15L59.17 10.41Z" fill="black" stroke="black" stroke-width="0.2" stroke-miterlimit="10"/>
<path d="M64.31 8.76001H65.06V9.60001H64.31V8.76001ZM64.31 10.43H65.06V14.84H64.31V10.43Z" fill="black" stroke="black" stroke-width="0.2" stroke-miterlimit="10"/>
<path d="M66.55 8.73999H67.28V11C67.4309 10.7922 67.6299 10.6241 67.86 10.51C68.2063 10.349 68.5945 10.3009 68.9696 10.3727C69.3446 10.4445 69.6876 10.6325 69.95 10.91C70.3297 11.384 70.5155 11.9844 70.47 12.59C70.4936 13.1917 70.3294 13.7859 70 14.29C69.8386 14.5132 69.6244 14.693 69.3767 14.8134C69.1289 14.9338 68.8552 14.991 68.58 14.98C68.2756 14.9891 67.9757 14.9054 67.72 14.74C67.5517 14.605 67.4036 14.4468 67.28 14.27V14.84H66.59L66.55 8.73999ZM69.4 13.84C69.6161 13.4564 69.72 13.0198 69.7 12.58C69.7171 12.1721 69.6127 11.7684 69.4 11.42C69.3052 11.2718 69.173 11.1513 69.0168 11.0705C68.8605 10.9897 68.6857 10.9516 68.51 10.96C68.3444 10.9586 68.1802 10.9906 68.0273 11.0542C67.8743 11.1178 67.7358 11.2116 67.62 11.33C67.4774 11.503 67.3703 11.7025 67.3051 11.917C67.2399 12.1316 67.2178 12.3569 67.24 12.58C67.2304 12.9196 67.2812 13.2582 67.39 13.58C67.4683 13.8052 67.6182 13.9986 67.8169 14.1305C68.0156 14.2623 68.252 14.3254 68.49 14.31C68.67 14.321 68.8495 14.2831 69.0097 14.2003C69.1699 14.1176 69.3048 13.9931 69.4 13.84Z" fill="black" stroke="black" stroke-width="0.2" stroke-miterlimit="10"/>
<path d="M71.78 8.76001H72.52V14.84H71.78V8.76001Z" fill="black" stroke="black" stroke-width="0.2" stroke-miterlimit="10"/>
<path d="M76.8 10.53C77.0705 10.6563 77.302 10.8532 77.47 11.1C77.6238 11.336 77.726 11.6018 77.77 11.88C77.8193 12.2109 77.8394 12.5456 77.83 12.88H74.61C74.6002 13.2758 74.7081 13.6656 74.92 14C75.0285 14.138 75.169 14.2474 75.3293 14.3188C75.4896 14.3903 75.6649 14.4216 75.84 14.41C76.0142 14.4178 76.1879 14.3868 76.3488 14.3194C76.5096 14.2519 76.6534 14.1497 76.77 14.02C76.8967 13.8684 76.9888 13.6909 77.04 13.5H77.77C77.7412 13.6904 77.6767 13.8736 77.58 14.04C77.4864 14.2268 77.3613 14.3959 77.21 14.54C76.9825 14.765 76.6938 14.918 76.38 14.98C76.184 15.0302 75.9822 15.0538 75.78 15.05C75.5175 15.0545 75.2571 15.0033 75.0158 14.8999C74.7745 14.7965 74.5578 14.6432 74.38 14.45C73.9781 13.9819 73.7738 13.3759 73.81 12.76C73.7768 12.1215 73.9837 11.4937 74.39 11C74.5745 10.7845 74.8051 10.6132 75.0647 10.499C75.3244 10.3847 75.6065 10.3304 75.89 10.34C76.2042 10.3287 76.5165 10.3939 76.8 10.53ZM77.07 12.27C77.055 12.0014 76.9834 11.739 76.86 11.5C76.7609 11.3252 76.6145 11.1818 76.4376 11.0863C76.2608 10.9908 76.0606 10.947 75.86 10.96C75.7 10.9568 75.5412 10.9882 75.3945 11.052C75.2478 11.1159 75.1166 11.2107 75.01 11.33C74.7751 11.5863 74.6464 11.9223 74.65 12.27H77.07Z" fill="black" stroke="black" stroke-width="0.2" stroke-miterlimit="10"/>
<path d="M84.72 10.53C84.9905 10.6563 85.222 10.8532 85.39 11.1C85.5438 11.336 85.646 11.6018 85.69 11.88C85.7439 12.2105 85.7673 12.5452 85.76 12.88H82.53C82.5154 13.2778 82.6274 13.67 82.85 14C82.9525 14.1421 83.0905 14.2547 83.2502 14.3267C83.4099 14.3986 83.5857 14.4274 83.76 14.41C83.9342 14.4178 84.108 14.3868 84.2688 14.3194C84.4296 14.2519 84.5734 14.1497 84.69 14.02C84.8206 13.871 84.9132 13.6926 84.96 13.5H85.69C85.6612 13.6904 85.5967 13.8736 85.5 14.04C85.4065 14.2243 85.2851 14.3929 85.14 14.54C84.9071 14.7629 84.6159 14.9155 84.3 14.98C84.1042 15.0308 83.9023 15.0544 83.7 15.05C83.4375 15.0545 83.1771 15.0033 82.9358 14.8999C82.6945 14.7965 82.4778 14.6432 82.3 14.45C81.8981 13.9819 81.6938 13.3759 81.73 12.76C81.6968 12.1215 81.9037 11.4937 82.31 11C82.4945 10.7845 82.7251 10.6132 82.9847 10.499C83.2444 10.3847 83.5265 10.3304 83.81 10.34C84.1242 10.3287 84.4365 10.3939 84.72 10.53ZM85 12.27C84.985 12.0014 84.9134 11.739 84.79 11.5C84.6918 11.3244 84.5456 11.1803 84.3685 11.0847C84.1914 10.989 83.9908 10.9458 83.79 10.96C83.6284 10.956 83.4679 10.987 83.3195 11.0508C83.171 11.1147 83.0382 11.2099 82.93 11.33C82.6951 11.5863 82.5664 11.9223 82.57 12.27H85Z" fill="black" stroke="black" stroke-width="0.2" stroke-miterlimit="10"/>
<path d="M87.13 10.41H87.83V11C88.0071 10.7641 88.2364 10.5724 88.5 10.44C88.7426 10.3215 89.0101 10.2632 89.28 10.27C89.5347 10.2416 89.792 10.2892 90.0198 10.4066C90.2475 10.524 90.4354 10.7061 90.56 10.93C90.6922 11.2462 90.7536 11.5875 90.74 11.93V14.77H90V12.05C90.0083 11.8239 89.9674 11.5987 89.88 11.39C89.8157 11.2568 89.7124 11.1462 89.5838 11.073C89.4552 10.9998 89.3074 10.9673 89.16 10.98C89.0173 10.961 88.8727 10.961 88.73 10.98C88.5136 11.0393 88.3234 11.1696 88.19 11.35C88.0683 11.4737 87.9849 11.63 87.95 11.8C87.9039 12.0202 87.8838 12.2451 87.89 12.47V14.79H87.15L87.13 10.41Z" fill="black" stroke="black" stroke-width="0.2" stroke-miterlimit="10"/>
</g>
<defs>
<clipPath id="clip0">
<rect width="119.66" height="40.14" fill="white"/>
</clipPath>
</defs>
</svg>
