<svg width="133" height="40" viewBox="0 0 133 40" fill="none" xmlns="http://www.w3.org/2000/svg">
<g clip-path="url(#clip0)">
<path d="M123.618 0.0126953H9.38393C9.02265 0.0126953 8.66606 0.0126953 8.30634 0.0126953C8.00449 0.0126953 7.70577 0.0126953 7.40079 0.0252384C6.74089 0.0338734 6.08262 0.0931034 5.43173 0.20241C4.77811 0.315141 4.14532 0.526597 3.55495 0.829566C2.96614 1.13118 2.42833 1.52377 1.96124 1.99294C1.4908 2.45969 1.09889 2.99977 0.800762 3.59219C0.501259 4.18434 0.293472 4.81877 0.184551 5.47366C0.0772171 6.12362 0.0207415 6.781 0.0156399 7.43979C0 7.74239 0 8.04657 0 8.34917V31.6809C0 31.9867 0 32.283 0.0156399 32.5903C0.0223192 33.2524 0.0808884 33.913 0.190807 34.5659C0.299252 35.2209 0.507062 35.8554 0.807018 36.4473C1.10515 37.0383 1.49709 37.5769 1.9675 38.0419C2.43434 38.5092 2.97228 38.8993 3.5612 39.1974C4.1519 39.4996 4.78457 39.711 5.43799 39.8246C6.0906 39.9323 6.75039 39.9905 7.41174 39.9986C7.71672 39.9986 8.01544 40.0096 8.31729 40.0096H124.684C124.985 40.0096 125.293 40.0096 125.593 39.9986C126.253 39.991 126.911 39.9328 127.562 39.8246C128.215 39.7096 128.848 39.4982 129.439 39.1974C130.028 38.8972 130.566 38.5045 131.031 38.034C131.5 37.567 131.892 37.0289 132.195 36.4395C132.493 35.8473 132.698 35.2127 132.804 34.558C132.915 33.905 132.976 33.2447 132.987 32.5825C132.987 32.2689 132.987 31.9788 132.987 31.6731C132.987 31.3141 132.987 30.9566 132.987 30.5928V9.42631C132.987 9.06569 132.987 8.70665 132.987 8.34917C132.987 8.04657 132.987 7.74239 132.987 7.43979C132.976 6.77762 132.915 6.11725 132.804 5.46425C132.698 4.80966 132.492 4.17521 132.195 3.58278C131.586 2.39685 130.623 1.4314 129.44 0.821727C128.849 0.522837 128.216 0.314099 127.564 0.20241C126.911 0.0930522 126.25 0.0348642 125.588 0.0283742C125.288 0.0283742 124.98 0.017399 124.68 0.0158311C124.326 0.0158311 123.966 0.0158311 123.613 0.0158311L123.618 0.0126953Z" fill="black"/>
<path d="M8.31574 39.1486C8.01545 39.1486 7.72299 39.1486 7.42427 39.1392C6.80817 39.1323 6.19342 39.0799 5.58502 38.9824C5.01756 38.884 4.46781 38.7017 3.95378 38.4415C3.44437 38.183 2.97968 37.8442 2.57747 37.438C2.17003 37.0372 1.83085 36.5722 1.57339 36.0614C1.3121 35.5466 1.13168 34.9945 1.0385 34.4245C0.939364 33.8127 0.887078 33.1942 0.882103 32.5744C0.882103 32.3659 0.868027 31.6729 0.868027 31.6729V8.34896C0.868027 8.34896 0.868027 7.66536 0.882103 7.46624C0.887334 6.84697 0.939618 6.229 1.0385 5.6177C1.13266 5.04646 1.31302 4.49293 1.57339 3.97612C1.83037 3.46534 2.16783 2.99945 2.57277 2.59637C2.97809 2.19047 3.44401 1.85034 3.95378 1.58822C4.4659 1.328 5.01425 1.1467 5.58032 1.05044C6.19121 0.951739 6.80865 0.899328 7.42739 0.893647L8.31574 0.881104H124.676L125.576 0.893647C126.189 0.899195 126.801 0.95161 127.406 1.05044C127.978 1.14753 128.532 1.3293 129.051 1.58979C130.072 2.11892 130.904 2.95416 131.43 3.97925C131.686 4.49213 131.864 5.04078 131.957 5.60672C132.058 6.22268 132.115 6.84518 132.127 7.46938C132.127 7.75003 132.127 8.04949 132.127 8.34896C132.127 8.71898 132.127 9.07176 132.127 9.4261V30.5926C132.127 30.9517 132.127 31.3013 132.127 31.6541C132.127 31.9755 132.127 32.2687 132.127 32.5713C132.116 33.1845 132.06 33.796 131.96 34.401C131.868 34.9748 131.688 35.5311 131.428 36.0504C131.168 36.5559 130.83 37.0173 130.427 37.4176C130.025 37.8262 129.56 38.1672 129.049 38.4274C128.532 38.6902 127.979 38.8731 127.407 38.9698C126.798 39.0679 126.183 39.1203 125.566 39.1266C125.279 39.1266 124.977 39.136 124.683 39.136H123.616L8.31574 39.1486Z" fill="white"/>
<path d="M49.3282 27.0476H44.7129L43.5821 30.1426H41.5489L46.0688 18.5825H47.9863L52.6094 30.1426H50.4809L49.3282 27.0476ZM45.2931 25.4797H48.7339L47.4999 22.1699C47.331 21.712 47.1642 21.2066 46.9994 20.6537C46.8503 21.1429 46.6887 21.643 46.5146 22.1542L45.2931 25.4797Z" fill="black"/>
<path d="M53.5306 23.6405C53.5306 23.0029 53.5092 22.301 53.4665 21.5349H55.312C55.382 21.8975 55.43 22.264 55.4559 22.6324C56.2191 21.7962 57.0944 21.3781 58.0818 21.3781C58.6708 21.3686 59.2492 21.5354 59.7431 21.8572C60.2371 22.1789 60.6241 22.6409 60.8548 23.1843C61.1551 23.8114 61.3052 24.6053 61.3052 25.5659C61.3293 26.453 61.1534 27.334 60.7907 28.1435C60.4849 28.8155 59.9847 29.3798 59.3549 29.7631C58.7074 30.1386 57.9695 30.329 57.2216 30.3135C56.6358 30.3117 56.0544 30.2121 55.5012 30.0187V33.5762L53.5369 33.744L53.5306 23.6405ZM58.6918 28.04C59.0922 27.5007 59.2924 26.7125 59.2924 25.6756C59.2924 24.713 59.136 24.0153 58.795 23.5809C58.6435 23.3728 58.4437 23.2048 58.2129 23.0914C57.9821 22.9781 57.7272 22.9228 57.4703 22.9303C57.0999 22.9276 56.7352 23.021 56.4115 23.2015C56.0702 23.3971 55.7593 23.6416 55.4887 23.9275V28.5355C55.7071 28.6388 55.9371 28.7151 56.1738 28.7628C56.4275 28.8187 56.6866 28.8471 56.9464 28.8475C57.7138 28.8485 58.2977 28.5794 58.698 28.04H58.6918Z" fill="black"/>
<path d="M62.5595 23.6405C62.5595 23.0029 62.5387 22.301 62.497 21.5349H64.3425C64.4117 21.8976 64.4597 22.264 64.4864 22.6324C65.2496 21.7962 66.1249 21.3781 67.1123 21.3781C67.7013 21.3686 68.2797 21.5354 68.7736 21.8572C69.2675 22.1789 69.6546 22.6409 69.8853 23.1843C70.1856 23.8114 70.3352 24.6053 70.3341 25.5659C70.3586 26.4528 70.1833 27.3339 69.8211 28.1435C69.5149 28.8152 69.0148 29.3793 68.3854 29.7631C67.7378 30.1385 67 30.3288 66.2521 30.3135C65.6663 30.3117 65.0849 30.2121 64.5317 30.0187V33.5762L62.5595 33.7409V23.6405ZM67.7285 28.04C68.1289 27.5007 68.3291 26.7125 68.3291 25.6756C68.3291 24.713 68.1633 24.0147 67.8317 23.5809C67.6802 23.3728 67.4804 23.2048 67.2496 23.0914C67.0188 22.9781 66.764 22.9228 66.507 22.9303C66.1367 22.9274 65.7718 23.0209 65.4482 23.2015C65.1064 23.3963 64.7954 23.6409 64.5255 23.9275V28.5355C64.7432 28.639 64.9727 28.7154 65.2089 28.7628C65.4627 28.8185 65.7217 28.8469 65.9815 28.8475C66.7489 28.8485 67.3323 28.5794 67.7317 28.04H67.7285Z" fill="black"/>
<path d="M74.0454 29.5955C73.2057 29.1339 72.524 28.4297 72.0889 27.5744C71.6322 26.6964 71.4039 25.659 71.4039 24.4622C71.4039 23.1661 71.6645 22.0638 72.1859 21.1555C72.683 20.2779 73.4294 19.5684 74.3301 19.1173C75.2765 18.6516 76.3195 18.4173 77.3736 18.4337C78.0152 18.4322 78.6547 18.5074 79.2786 18.6579C79.8593 18.7978 80.4235 18.9996 80.9614 19.2599L80.4609 20.7761C79.5314 20.3055 78.5086 20.0495 77.4675 20.0266C76.733 20.0096 76.0071 20.1864 75.3623 20.5393C74.7516 20.8898 74.2609 21.4172 73.9547 22.0523C73.6022 22.8048 73.4308 23.6297 73.4543 24.4606C73.4403 25.2105 73.5715 25.9559 73.8406 26.6557C74.0814 27.2742 74.5062 27.8035 75.0573 28.1718C75.612 28.545 76.3111 28.731 77.1547 28.73C77.5388 28.7301 77.9222 28.6981 78.3011 28.6343C78.6667 28.5754 79.0259 28.4819 79.374 28.3553V26.0097H76.7152V24.4779H81.2914V29.3383C80.6276 29.6491 79.9323 29.8872 79.2176 30.0486C78.5091 30.2117 77.7846 30.2948 77.0577 30.2963C75.8983 30.3005 74.8942 30.0669 74.0454 29.5955Z" fill="black"/>
<path d="M88.3653 30.1426C88.2913 29.7662 88.2463 29.3846 88.2308 29.0012C87.9017 29.3842 87.4998 29.6976 87.0484 29.9231C86.5394 30.1815 85.9752 30.3118 85.4047 30.3025C84.9391 30.3086 84.4782 30.2089 84.0565 30.0109C83.6544 29.8211 83.3179 29.5154 83.09 29.1329C82.8395 28.6987 82.7155 28.2027 82.7318 27.7014C82.7173 27.3212 82.791 26.9427 82.947 26.5959C83.103 26.249 83.3372 25.9431 83.6311 25.7023C84.2307 25.2048 85.2306 24.9566 86.6309 24.9576C87.1542 24.9566 87.6769 24.9938 88.1948 25.0689V24.9012C88.1948 24.1413 88.0332 23.6056 87.71 23.2941C87.3868 22.9826 86.9228 22.8258 86.3181 22.8237C85.8633 22.8285 85.411 22.8902 84.9715 23.0071C84.5416 23.1137 84.1226 23.2607 83.7203 23.4462L83.4075 22.01C83.8542 21.8191 84.3182 21.6721 84.7932 21.571C85.3884 21.4354 85.9971 21.3686 86.6074 21.3718C87.2551 21.3544 87.8996 21.4697 88.5014 21.7105C89.0294 21.9457 89.4595 22.3575 89.7182 22.8754C90.0101 23.4263 90.1561 24.1669 90.1561 25.0971V28.5198C90.1561 28.8758 90.178 29.4167 90.2202 30.1395L88.3653 30.1426ZM87.1876 28.5465C87.5673 28.3715 87.9082 28.122 88.1902 27.8127V26.2166C87.7545 26.1651 87.3166 26.1363 86.878 26.1304C86.0668 26.1304 85.5058 26.2616 85.1951 26.5239C85.0409 26.654 84.9185 26.8176 84.8371 27.0024C84.7558 27.1872 84.7178 27.3883 84.7259 27.5901C84.7259 28.0155 84.8385 28.3291 85.0637 28.5308C85.3195 28.7486 85.6482 28.8607 85.9834 28.8444C86.4038 28.8391 86.8174 28.7372 87.1923 28.5465H87.1876Z" fill="black"/>
<path d="M91.8734 28.0762V17.9053L93.8299 17.7485V27.7282C93.8299 28.095 93.8925 28.3553 94.0176 28.5121C94.0925 28.5928 94.1849 28.6553 94.2877 28.6947C94.3904 28.7341 94.5008 28.7494 94.6103 28.7394C94.7858 28.7314 94.9597 28.7019 95.128 28.6516L95.3579 30.0627C95.1382 30.1468 94.9101 30.2073 94.6776 30.2431C94.4265 30.2861 94.1723 30.3086 93.9175 30.3105C92.5537 30.3052 91.8723 29.5605 91.8734 28.0762Z" fill="black"/>
<path d="M96.7671 28.0762V17.9053L98.7236 17.7485V27.7282C98.7236 28.095 98.7862 28.3553 98.9113 28.5121C98.9864 28.5926 99.0788 28.6549 99.1815 28.6943C99.2842 28.7337 99.3945 28.7492 99.5041 28.7394C99.6796 28.7315 99.8534 28.702 100.022 28.6516L100.253 30.0627C100.033 30.1468 99.8043 30.2072 99.5713 30.2431C99.3202 30.2861 99.066 30.3086 98.8112 30.3105C97.4495 30.3052 96.7681 29.5605 96.7671 28.0762Z" fill="black"/>
<path d="M108.402 26.0897H102.784C102.872 27.8927 103.729 28.7943 105.353 28.7943C105.771 28.7929 106.186 28.7435 106.592 28.6469C107.007 28.5501 107.413 28.4179 107.806 28.2518L108.234 29.6002C107.222 30.0794 106.114 30.3197 104.995 30.3026C104.083 30.3026 103.313 30.1296 102.687 29.7836C102.073 29.4468 101.58 28.9245 101.279 28.291C100.946 27.5531 100.786 26.7487 100.81 25.9392C100.787 25.0926 100.959 24.2522 101.31 23.4823C101.614 22.8344 102.099 22.2894 102.707 21.9144C103.332 21.5451 104.047 21.3573 104.772 21.3719C105.583 21.3719 106.261 21.5621 106.805 21.9426C107.346 22.3208 107.766 22.8487 108.014 23.4619C108.28 24.1275 108.412 24.8395 108.402 25.5566V26.0897ZM106.484 24.8354C106.447 24.1502 106.275 23.6344 105.966 23.2926C105.811 23.1215 105.62 22.9869 105.406 22.898C105.193 22.8091 104.963 22.7683 104.732 22.7783C104.499 22.7713 104.267 22.8139 104.052 22.903C103.836 22.9922 103.642 23.126 103.481 23.2957C103.15 23.6427 102.933 24.1559 102.832 24.8354H106.484Z" fill="black"/>
<path d="M109.986 23.6972C109.986 23.2236 109.965 22.5029 109.922 21.535H111.759C111.792 21.7734 111.822 22.0603 111.852 22.3927C111.881 22.7251 111.9 22.9947 111.911 23.2017C112.109 22.8664 112.334 22.5476 112.584 22.2484C112.801 21.9941 113.063 21.7816 113.356 21.6213C113.665 21.4558 114.012 21.3721 114.362 21.3782C114.626 21.373 114.889 21.4052 115.144 21.4739L114.897 23.1813C114.69 23.1208 114.476 23.0912 114.26 23.0935C113.83 23.0848 113.408 23.2085 113.05 23.4479C112.619 23.774 112.246 24.1692 111.944 24.6175V30.1459H109.986V23.6972Z" fill="black"/>
<path d="M116.322 33.6641C116.081 33.6256 115.845 33.5685 115.613 33.4932L115.971 32.057C116.136 32.1019 116.303 32.138 116.472 32.1652C116.661 32.1986 116.852 32.2159 117.044 32.2169C117.916 32.2169 118.569 31.6556 119.002 30.533L119.129 30.2195L115.963 21.5396H118.072L119.664 26.3891C119.87 27.0136 120.037 27.6504 120.164 28.2957C120.312 27.6685 120.488 27.0466 120.69 26.4299L122.304 21.5349H124.285L121.128 30.2602C120.891 30.9626 120.567 31.6326 120.164 32.2546C119.857 32.7259 119.437 33.1128 118.943 33.3803C118.415 33.6382 117.832 33.764 117.244 33.7472C116.935 33.7471 116.626 33.7193 116.322 33.6641Z" fill="black"/>
<path fill-rule="evenodd" clip-rule="evenodd" d="M26.9553 7.29077H15.851C10.6351 7.29077 8.71454 9.20673 8.71454 14.4498V25.5818C8.71454 30.8232 10.6273 32.7408 15.8557 32.7408H26.96C32.1885 32.7408 34.1043 30.8232 34.1043 25.5818V14.4498C34.095 9.20673 32.1838 7.29077 26.9553 7.29077Z" fill="#C8102E"/>
<path d="M13.7412 20.0157H14.4137V23.3428H13.7412V21.9912H12.221V23.3428H11.5469V20.0157H12.221V21.3578H13.7412V20.0157ZM17.5339 21.9191C17.5339 22.46 17.2664 22.7485 16.78 22.7485C16.2936 22.7485 16.0215 22.4522 16.0215 21.8956V20.0141H15.3474V21.9191C15.3474 22.8599 15.8666 23.3914 16.7706 23.3914C17.6746 23.3914 18.2064 22.8457 18.2064 21.8925V20.011H17.5339V21.9191ZM25.3147 22.3032L24.5624 20.0157H24.0119L23.2596 22.3032L22.5214 20.0173H21.8051L22.9609 23.3412H23.5192L24.2731 21.1571L25.0269 23.3412H25.59L26.7442 20.0173H26.0451L25.3147 22.3032ZM27.9547 21.9097H29.1793V21.3045H27.9547V20.624H29.733V20.0173H27.2916V23.3396H29.794V22.7344H27.9547V21.9097ZM30.5994 23.3381H31.2641V20.0157H30.5994V23.3381ZM19.5373 22.6482L19.237 23.3396H18.5489L20.0096 20.0157H20.604L22.06 23.3396H21.3547L21.056 22.6482H19.5373ZM19.7876 22.0477H20.801L20.2959 20.8529L19.7876 22.0477Z" fill="white"/>
<path d="M21.4063 15.7794C20.2864 15.7794 19.2123 15.3334 18.4204 14.5395C17.6284 13.7456 17.1835 12.6689 17.1835 11.5461H17.781C17.8007 12.4976 18.1916 13.4034 18.8697 14.0693C19.5479 14.7352 20.4594 15.1081 21.4087 15.1081C22.3579 15.1081 23.2694 14.7352 23.9476 14.0693C24.6258 13.4034 25.0166 12.4976 25.0363 11.5461H25.6338C25.6338 12.1025 25.5244 12.6533 25.3119 13.1672C25.0994 13.6812 24.7879 14.148 24.3953 14.5412C24.0027 14.9344 23.5366 15.2461 23.0237 15.4586C22.5109 15.671 21.9613 15.7801 21.4063 15.7794V15.7794Z" fill="white"/>
<path d="M41.5426 7.33936H45.0898L44.9897 8.19856H42.5811V9.86209H44.8521V10.6617H42.5811V12.5087H45.1179L45.0319 13.3757H41.5426V7.33936Z" fill="black"/>
<path d="M47.4999 10.2948L45.6231 7.33936H46.8039L48.0723 9.51245L49.422 7.33936H50.5684L48.7073 10.2588L50.7155 13.3757H49.5174L48.0833 11.0004L46.6225 13.3757H45.4761L47.4999 10.2948Z" fill="black"/>
<path d="M51.4458 7.33936H53.0677C53.8309 7.33936 54.4148 7.49614 54.8194 7.80972C55.2239 8.1233 55.4262 8.57381 55.4262 9.16124C55.4347 9.52898 55.3405 9.89177 55.1541 10.2086C54.9732 10.507 54.7096 10.7461 54.3955 10.8969C54.0454 11.0609 53.6621 11.1414 53.2757 11.1321C53.0105 11.1282 52.7461 11.1004 52.4859 11.049V13.3757H51.4458V7.33936ZM54.053 10.0346C54.1669 9.92545 54.2557 9.79276 54.3133 9.64572C54.3708 9.49869 54.3957 9.34085 54.3861 9.18319C54.3861 8.81003 54.273 8.5414 54.0467 8.3773C53.8215 8.22051 53.49 8.13114 53.052 8.13114H52.4859V10.2744C52.6837 10.3103 52.8839 10.3313 53.0849 10.3372C53.5087 10.3372 53.8325 10.2368 54.053 10.0346Z" fill="black"/>
<path d="M56.4193 7.33936H57.4594V12.4836H59.9492L59.8632 13.3757H56.4224L56.4193 7.33936Z" fill="black"/>
<path d="M61.837 13.0809C61.4022 12.8337 61.0506 12.4626 60.8266 12.0147C60.5842 11.5189 60.4641 10.9721 60.4763 10.4201C60.4636 9.84154 60.5913 9.26849 60.8485 8.75035C61.0892 8.28506 61.4634 7.90276 61.923 7.65282C62.4308 7.38236 62.9997 7.24788 63.5746 7.26242C64.12 7.2479 64.6596 7.37826 65.1385 7.64028C65.5708 7.88531 65.9199 8.25446 66.1411 8.70017C66.3791 9.19387 66.497 9.7371 66.4851 10.2853C66.4993 10.8705 66.3704 11.4502 66.1098 11.9739C65.8684 12.4381 65.495 12.8201 65.0369 13.0715C64.5334 13.3399 63.9695 13.4739 63.3994 13.4603C62.8544 13.4733 62.3156 13.3425 61.837 13.0809V13.0809ZM64.5317 12.3408C64.8247 12.1423 65.0518 11.8606 65.1839 11.5318C65.3357 11.1561 65.4097 10.7533 65.4013 10.348C65.408 9.95329 65.3428 9.56064 65.2089 9.18936C65.0923 8.86297 64.8796 8.57976 64.599 8.37719C64.2789 8.1649 63.9001 8.05953 63.5167 8.07615C63.1353 8.06669 62.7604 8.17627 62.4438 8.38973C62.1481 8.59358 61.9168 8.87816 61.7775 9.20974C61.6278 9.56912 61.5533 9.95547 61.5586 10.3449C61.5558 10.7458 61.6302 11.1434 61.7775 11.5161C61.902 11.8442 62.1194 12.1287 62.4031 12.3345C62.7171 12.542 63.0876 12.6467 63.4635 12.634C63.841 12.6469 64.2135 12.5447 64.5317 12.3408V12.3408ZM62.7519 6.88926L63.8373 5.60986L64.9321 5.71021L63.4025 6.98177L62.7519 6.88926Z" fill="black"/>
<path d="M67.6159 7.33936H69.5005C70.1887 7.33936 70.71 7.47733 71.0645 7.75328C71.2403 7.894 71.38 8.07493 71.4717 8.28089C71.5634 8.48685 71.6045 8.71186 71.5916 8.93703C71.5983 9.22968 71.5328 9.51946 71.4008 9.78056C71.2876 10.0094 71.1277 10.2118 70.9316 10.3748C70.7572 10.5193 70.5607 10.6347 70.3498 10.7166L72.2 13.382H70.9894L69.4254 10.9894H68.6591V13.3757H67.619L67.6159 7.33936ZM69.2471 10.1913C69.4795 10.1933 69.709 10.1395 69.9165 10.0346C70.1044 9.94187 70.2618 9.79714 70.3701 9.6175C70.4794 9.4271 70.5336 9.20991 70.5265 8.99034C70.537 8.86449 70.5163 8.73798 70.4664 8.62203C70.4165 8.50607 70.3388 8.40425 70.2403 8.32556C69.9912 8.16835 69.6988 8.09425 69.4051 8.11389H68.6591V10.1913H69.2471Z" fill="black"/>
<path d="M76.2664 11.7592H73.8531L73.2635 13.3757H72.2031L74.5647 7.33618H75.5673L77.9836 13.3757H76.8685L76.2664 11.7592ZM74.1581 10.9376H75.9582L75.3139 9.21295C75.2253 8.97463 75.1377 8.71331 75.0511 8.429C74.974 8.68404 74.8895 8.94536 74.7978 9.21295L74.1581 10.9376Z" fill="black"/>
<path d="M78.714 7.33936H79.754V12.4836H82.2454L82.1579 13.3757H78.7171L78.714 7.33936Z" fill="black"/>
<path d="M84.1316 13.0808C83.6972 12.8332 83.3457 12.4622 83.1213 12.0146C82.8794 11.5187 82.7598 10.9719 82.7725 10.4201C82.759 9.84138 82.8868 9.26816 83.1447 8.75026C83.3844 8.28474 83.7582 7.9023 84.2176 7.65274C84.7261 7.38248 85.2954 7.24802 85.8708 7.26233C86.4162 7.24774 86.9558 7.3781 87.4348 7.6402C87.867 7.88523 88.2162 8.25437 88.4373 8.70009C88.6759 9.19366 88.7943 9.73689 88.7829 10.2852C88.7974 10.8706 88.6679 11.4505 88.406 11.9738C88.1651 12.4384 87.7916 12.8205 87.3331 13.0714C86.8329 13.3381 86.273 13.472 85.7066 13.4602C85.1574 13.4754 84.614 13.3445 84.1316 13.0808ZM86.8264 12.3407C87.1198 12.1424 87.3475 11.8606 87.4801 11.5317C87.6307 11.1557 87.7041 10.7531 87.696 10.3479C87.7024 9.95336 87.6377 9.56085 87.5052 9.18927C87.3874 8.86306 87.1743 8.58001 86.8936 8.3771C86.5693 8.17875 86.1967 8.07381 85.8168 8.07381C85.4369 8.07381 85.0643 8.17875 84.74 8.3771C84.4458 8.58205 84.2162 8.86713 84.0784 9.19868C83.9264 9.56233 83.8513 9.95368 83.8579 10.3479C83.8509 10.7482 83.9215 11.146 84.0659 11.5192C84.1923 11.8493 84.4139 12.1342 84.7025 12.3376C85.0163 12.5456 85.3869 12.6503 85.7629 12.6371C86.1391 12.6482 86.5098 12.5449 86.8264 12.3407V12.3407Z" fill="black"/>
<path d="M92.5349 7.33936H96.0821L95.982 8.19856H93.575V9.86209H95.8459V10.6617H93.575V12.5087H96.1118L96.0289 13.3757H92.5349V7.33936Z" fill="black"/>
<path d="M97.2503 7.33921H98.4437L101.415 12.0178C101.39 11.5725 101.378 11.1633 101.378 10.787V7.33765H102.343V13.374H101.19L98.1684 8.62332C98.1997 9.16267 98.2153 9.64088 98.2153 10.0579V13.3756H97.2503V7.33921Z" fill="black"/>
</g>
<defs>
<clipPath id="clip0">
<rect width="133" height="40" fill="white"/>
</clipPath>
</defs>
</svg>
