<svg width="135" height="41" viewBox="0 0 135 41" fill="none" xmlns="http://www.w3.org/2000/svg">
<g clip-path="url(#clip0)">
<path d="M130 0.0100098H5C2.23858 0.0100098 0 2.24859 0 5.01001V35.01C0 37.7714 2.23858 40.01 5 40.01H130C132.761 40.01 135 37.7714 135 35.01V5.01001C135 2.24859 132.761 0.0100098 130 0.0100098Z" fill="white"/>
<path d="M130 0.81C131.111 0.812627 132.177 1.2546 132.963 2.03952C133.75 2.82445 134.195 3.88864 134.2 5V35C134.2 36.1139 133.758 37.1822 132.97 37.9698C132.182 38.7575 131.114 39.2 130 39.2H5C3.88609 39.2 2.8178 38.7575 2.03015 37.9698C1.2425 37.1822 0.8 36.1139 0.8 35V5C0.805277 3.88864 1.24979 2.82445 2.03658 2.03952C2.82338 1.2546 3.88863 0.812627 5 0.81H130ZM130 0.01H5C3.67565 0.00999735 2.40539 0.535409 1.468 1.47093C0.530602 2.40645 0.0026487 3.67565 0 5L0 35C0 36.3261 0.526784 37.5979 1.46447 38.5355C2.40215 39.4732 3.67392 40 5 40H130C131.326 40 132.598 39.4732 133.536 38.5355C134.473 37.5979 135 36.3261 135 35V5C135 3.67392 134.473 2.40215 133.536 1.46447C132.598 0.526784 131.326 0 130 0V0.01Z" fill="black"/>
<path d="M68.14 21.76C67.297 21.762 66.4736 22.014 65.7739 22.4842C65.0743 22.9544 64.5298 23.6216 64.2095 24.4013C63.8892 25.1811 63.8075 26.0383 63.9746 26.8646C64.1417 27.6908 64.5502 28.4489 65.1484 29.0429C65.7466 29.6368 66.5075 30.04 67.3349 30.2013C68.1623 30.3626 69.0189 30.2748 69.7964 29.949C70.5739 29.6232 71.2372 29.0741 71.7025 28.3711C72.1677 27.6681 72.4139 26.843 72.41 26C72.4168 25.4388 72.3107 24.8819 72.0982 24.3624C71.8856 23.843 71.5709 23.3715 71.1726 22.976C70.7743 22.5805 70.3007 22.2691 69.7797 22.0602C69.2588 21.8513 68.7011 21.7492 68.14 21.76ZM68.14 28.59C67.624 28.6261 67.1091 28.5062 66.662 28.246C66.215 27.9858 65.8565 27.5972 65.6331 27.1307C65.4097 26.6641 65.3317 26.1412 65.4091 25.6298C65.4866 25.1184 65.716 24.6421 66.0676 24.2627C66.4192 23.8833 66.8767 23.6183 67.3807 23.5022C67.8848 23.386 68.4121 23.4241 68.8942 23.6114C69.3764 23.7986 69.7911 24.1265 70.0846 24.5525C70.378 24.9784 70.5367 25.4827 70.54 26C70.5575 26.3288 70.5088 26.6578 70.3967 26.9675C70.2847 27.2771 70.1117 27.5611 69.8879 27.8027C69.664 28.0442 69.394 28.2384 69.0938 28.3736C68.7935 28.5088 68.4692 28.5824 68.14 28.59ZM58.82 21.76C57.977 21.762 57.1536 22.014 56.4539 22.4842C55.7543 22.9544 55.2098 23.6216 54.8895 24.4013C54.5692 25.1811 54.4875 26.0383 54.6546 26.8646C54.8217 27.6908 55.2302 28.4489 55.8284 29.0429C56.4266 29.6368 57.1875 30.04 58.0149 30.2013C58.8423 30.3626 59.6989 30.2748 60.4764 29.949C61.2539 29.6232 61.9172 29.0741 62.3825 28.3711C62.8477 27.6681 63.0939 26.843 63.09 26C63.0954 25.4391 62.9884 24.8829 62.7754 24.3641C62.5623 23.8452 62.2475 23.3743 61.8495 22.9791C61.4515 22.5839 60.9784 22.2724 60.4581 22.063C59.9378 21.8537 59.3808 21.7506 58.82 21.76ZM58.82 28.59C58.304 28.6261 57.7891 28.5062 57.342 28.246C56.895 27.9858 56.5365 27.5972 56.3131 27.1307C56.0897 26.6641 56.0117 26.1412 56.0891 25.6298C56.1666 25.1184 56.396 24.6421 56.7476 24.2627C57.0992 23.8833 57.5567 23.6183 58.0607 23.5022C58.5648 23.386 59.0921 23.4241 59.5742 23.6114C60.0564 23.7986 60.4711 24.1265 60.7646 24.5525C61.058 24.9784 61.2167 25.4827 61.22 26C61.2375 26.3288 61.1888 26.6578 61.0767 26.9675C60.9647 27.2771 60.7917 27.5611 60.5679 27.8027C60.344 28.0442 60.074 28.2384 59.7738 28.3736C59.4735 28.5088 59.1492 28.5824 58.82 28.59ZM47.74 23.07V24.87H52.06C51.9922 25.7178 51.6398 26.5178 51.06 27.14C50.6275 27.5833 50.1067 27.9308 49.5313 28.1599C48.9559 28.389 48.3388 28.4947 47.72 28.47C46.4835 28.4136 45.3164 27.8827 44.4614 26.9878C43.6064 26.0928 43.1292 24.9027 43.1292 23.665C43.1292 22.4273 43.6064 21.2372 44.4614 20.3422C45.3164 19.4473 46.4835 18.9164 47.72 18.86C48.9404 18.8418 50.1189 19.3053 51 20.15L52.27 18.88C51.674 18.2905 50.9663 17.8259 50.1884 17.5134C49.4106 17.2008 48.5782 17.0467 47.74 17.06C46.851 17.0254 45.9641 17.1706 45.1326 17.487C44.3011 17.8033 43.5419 18.2843 42.9007 18.901C42.2595 19.5177 41.7494 20.2576 41.401 21.0762C41.0525 21.8948 40.8729 22.7753 40.8729 23.665C40.8729 24.5547 41.0525 25.4352 41.401 26.2538C41.7494 27.0724 42.2595 27.8122 42.9007 28.429C43.5419 29.0457 44.3011 29.5267 45.1326 29.843C45.9641 30.1594 46.851 30.3046 47.74 30.27C48.5539 30.3168 49.3687 30.1926 50.1318 29.9054C50.8948 29.6182 51.5893 29.1745 52.1705 28.6027C52.7517 28.0309 53.2068 27.3438 53.5064 26.5855C53.8059 25.8272 53.9434 25.0146 53.91 24.2C53.9139 23.8214 53.8838 23.4432 53.82 23.07H47.74ZM93.05 24.47C92.7892 23.7027 92.3015 23.0328 91.6515 22.5488C91.0015 22.0649 90.2198 21.7898 89.41 21.76C88.8621 21.7588 88.3198 21.8702 87.8167 22.0873C87.3137 22.3044 86.8605 22.6225 86.4855 23.0219C86.1105 23.4214 85.8215 23.8936 85.6365 24.4093C85.4515 24.925 85.3744 25.4733 85.41 26.02C85.4036 26.932 85.6922 27.8216 86.2327 28.5562C86.7731 29.2908 87.5365 29.8311 88.4091 30.0965C89.2816 30.3618 90.2166 30.3381 91.0745 30.0288C91.9325 29.7194 92.6675 29.1411 93.17 28.38L91.72 27.38C91.5038 27.7403 91.1972 28.0378 90.8306 28.243C90.464 28.4483 90.0501 28.5541 89.63 28.55C89.1977 28.5687 88.7698 28.4566 88.4023 28.2282C88.0347 27.9998 87.7447 27.6659 87.57 27.27L93.25 25L93.05 24.47ZM87.25 25.89C87.2297 25.5799 87.2717 25.2688 87.3734 24.9752C87.4752 24.6816 87.6347 24.4112 87.8424 24.1801C88.0502 23.949 88.3022 23.7619 88.5834 23.6296C88.8646 23.4973 89.1695 23.4227 89.48 23.41C89.8011 23.3894 90.1212 23.4638 90.4004 23.6238C90.6795 23.7839 90.9054 24.0225 91.05 24.31L87.25 25.89ZM82.63 30H84.5V17.51H82.63V30ZM79.57 22.7H79.5C79.216 22.3909 78.8692 22.1463 78.4829 21.9824C78.0965 21.8185 77.6795 21.7393 77.26 21.75C76.1672 21.803 75.1366 22.2744 74.382 23.0666C73.6273 23.8587 73.2063 24.9109 73.2063 26.005C73.2063 27.0991 73.6273 28.1513 74.382 28.9434C75.1366 29.7356 76.1672 30.207 77.26 30.26C77.6839 30.2685 78.1046 30.1833 78.4918 30.0104C78.879 29.8375 79.2233 29.5813 79.5 29.26H79.57V29.88C79.6162 30.1989 79.5912 30.5241 79.4967 30.8321C79.4023 31.1402 79.2407 31.4235 79.0236 31.6616C78.8065 31.8997 78.5393 32.0867 78.2413 32.2092C77.9432 32.3317 77.6218 32.3866 77.3 32.37C76.8323 32.3597 76.3782 32.2107 75.9954 31.9418C75.6126 31.673 75.3183 31.2964 75.15 30.86L73.53 31.53C73.8295 32.2822 74.3502 32.9259 75.0234 33.3758C75.6965 33.8258 76.4904 34.0609 77.3 34.05C79.49 34.05 81.3 32.76 81.3 29.62V22H79.57V22.7ZM77.42 28.58C76.7648 28.5391 76.1498 28.2501 75.7003 27.7717C75.2508 27.2932 75.0005 26.6615 75.0005 26.005C75.0005 25.3485 75.2508 24.7167 75.7003 24.2383C76.1498 23.7599 76.7648 23.4708 77.42 23.43C77.7402 23.4438 78.0544 23.5219 78.3438 23.6596C78.6333 23.7974 78.8921 23.9919 79.1048 24.2317C79.3175 24.4714 79.4798 24.7516 79.5821 25.0554C79.6843 25.3591 79.7244 25.6804 79.7 26C79.7287 26.3215 79.6917 26.6454 79.5913 26.9522C79.4909 27.2589 79.3291 27.5421 79.1158 27.7843C78.9026 28.0266 78.6422 28.2229 78.3507 28.3614C78.0592 28.5 77.7425 28.5777 77.42 28.59V28.58ZM101.81 17.5H97.33V30H99.2V25.28H101.81C102.337 25.3067 102.863 25.2261 103.358 25.0429C103.853 24.8597 104.305 24.5779 104.687 24.2145C105.069 23.8511 105.374 23.4138 105.582 22.9291C105.79 22.4444 105.897 21.9224 105.897 21.395C105.897 20.8675 105.79 20.3456 105.582 19.8609C105.374 19.3762 105.069 18.9389 104.687 18.5755C104.305 18.2121 103.853 17.9303 103.358 17.7471C102.863 17.5639 102.337 17.4833 101.81 17.51V17.5ZM101.81 23.5H99.2V19.25H101.85C102.144 19.2299 102.439 19.2705 102.717 19.3692C102.994 19.4679 103.249 19.6226 103.464 19.8238C103.679 20.0249 103.851 20.2682 103.969 20.5385C104.086 20.8088 104.147 21.1003 104.147 21.395C104.147 21.6897 104.086 21.9812 103.969 22.2515C103.851 22.5218 103.679 22.7651 103.464 22.9662C103.249 23.1674 102.994 23.3221 102.717 23.4208C102.439 23.5195 102.144 23.5601 101.85 23.54L101.81 23.5ZM113.35 21.7C112.669 21.6606 111.992 21.8202 111.401 22.1594C110.809 22.4986 110.33 23.0026 110.02 23.61L111.67 24.31C111.834 24.0067 112.084 23.758 112.388 23.5946C112.691 23.4311 113.036 23.36 113.38 23.39C113.617 23.3623 113.858 23.3821 114.088 23.4483C114.317 23.5145 114.531 23.6258 114.718 23.7757C114.904 23.9256 115.058 24.111 115.172 24.3212C115.286 24.5314 115.356 24.7622 115.38 25V25.13C114.782 24.8033 114.111 24.6346 113.43 24.64C111.65 24.64 109.83 25.64 109.83 27.46C109.848 27.8468 109.943 28.2262 110.11 28.5755C110.277 28.9249 110.513 29.2371 110.803 29.4936C111.093 29.7501 111.431 29.9457 111.799 30.0688C112.166 30.1919 112.554 30.2399 112.94 30.21C113.408 30.238 113.876 30.1407 114.294 29.928C114.713 29.7154 115.067 29.395 115.32 29H115.38V30H117.18V25.2C117.18 23 115.52 21.74 113.39 21.74L113.35 21.7ZM113.12 28.55C112.51 28.55 111.66 28.25 111.66 27.49C111.66 26.49 112.72 26.16 113.66 26.16C114.253 26.1428 114.84 26.2843 115.36 26.57C115.302 27.1167 115.046 27.6234 114.641 27.9952C114.236 28.367 113.71 28.5785 113.16 28.59L113.12 28.55ZM123.74 22L121.6 27.42H121.54L119.32 22H117.32L120.65 29.58L118.75 33.79H120.75L125.82 22H123.74ZM106.94 30H108.8V17.51H106.94V30Z" fill="black"/>
<path d="M10.44 7.54998C10.1089 7.95689 9.95083 8.47764 10 8.99998V31.07C9.96976 31.5829 10.1381 32.0878 10.47 32.48L10.54 32.55L22.9 20.16V19.87L10.51 7.47998L10.44 7.54998Z" fill="url(#paint0_linear)"/>
<path d="M27 24.29L22.9 20.16V19.87L27 15.74H27.09L32 18.57C33.4 19.36 33.4 20.66 32 21.46L27.11 24.24L27 24.29Z" fill="url(#paint1_linear)"/>
<path d="M27.12 24.24L22.9 20L10.44 32.48C10.7246 32.7283 11.0867 32.87 11.4643 32.881C11.8418 32.8919 12.2115 32.7714 12.51 32.54L27.12 24.24Z" fill="url(#paint2_linear)"/>
<path d="M27.12 15.79L12.51 7.48998C12.213 7.25489 11.8427 7.13204 11.4641 7.14301C11.0855 7.15398 10.7229 7.29809 10.44 7.54998L22.9 20L27.12 15.79Z" fill="url(#paint3_linear)"/>
<path opacity="0.2" d="M27 24.14L12.51 32.39C12.2219 32.6074 11.8709 32.725 11.51 32.725C11.1491 32.725 10.7981 32.6074 10.51 32.39L10.44 32.47L10.51 32.54C10.7981 32.7574 11.1491 32.875 11.51 32.875C11.8709 32.875 12.2219 32.7574 12.51 32.54L27.12 24.24L27 24.14Z" fill="black"/>
<path opacity="0.12" d="M10.44 32.33C10.1105 31.9404 9.94236 31.4395 9.97003 30.93V31.07C9.93976 31.5829 10.1081 32.0878 10.44 32.48L10.51 32.4L10.44 32.33Z" fill="black"/>
<path opacity="0.12" d="M32 21.31L27 24.14L27.09 24.24L32 21.46C32.292 21.3349 32.5447 21.1332 32.7313 20.8762C32.9179 20.6191 33.0315 20.3164 33.06 20C33.0004 20.287 32.8732 20.5556 32.6888 20.7835C32.5044 21.0113 32.2683 21.1919 32 21.31Z" fill="black"/>
<path opacity="0.25" d="M12.51 7.63001L32 18.71C32.265 18.8276 32.4988 19.0054 32.6829 19.2294C32.8669 19.4534 32.9961 19.7173 33.06 20C33.0264 19.689 32.9104 19.3925 32.7241 19.1411C32.5378 18.8898 32.2878 18.6926 32 18.57L12.51 7.49001C11.12 6.69001 10 7.35001 10 9.00001V9.10001C10 7.50001 11.12 6.84001 12.51 7.63001Z" fill="white"/>
<path d="M41.28 13V7H43.12C43.5261 6.98301 43.9314 7.04871 44.3113 7.19311C44.6912 7.33751 45.0378 7.55759 45.33 7.84C45.6083 8.12448 45.8254 8.46283 45.9681 8.83427C46.1109 9.20571 46.1762 9.6024 46.16 10C46.1729 10.3987 46.1061 10.796 45.9636 11.1686C45.8211 11.5412 45.6057 11.8816 45.33 12.17C45.0369 12.4506 44.69 12.6689 44.3101 12.8115C43.9302 12.9542 43.5254 13.0183 43.12 13H41.28ZM42.05 12.26H43.12C43.4229 12.2861 43.7279 12.2455 44.0134 12.141C44.2989 12.0365 44.558 11.8706 44.7726 11.6552C44.9871 11.4397 45.1517 11.1799 45.255 10.8939C45.3582 10.6079 45.3975 10.3028 45.37 10C45.3957 9.69759 45.3552 9.39323 45.2513 9.10807C45.1475 8.8229 44.9828 8.56378 44.7686 8.3487C44.5545 8.13363 44.2961 7.96777 44.0114 7.86265C43.7267 7.75753 43.4225 7.71568 43.12 7.74H42.05V12.26Z" fill="black"/>
<path d="M43.12 13.11H41.18V6.90998H43.12C43.5393 6.89143 43.958 6.95907 44.3502 7.1087C44.7423 7.25834 45.0996 7.48681 45.4 7.77998C45.6872 8.07175 45.9117 8.41923 46.0596 8.80102C46.2075 9.18281 46.2757 9.59084 46.26 9.99998C46.2755 10.4121 46.2073 10.8231 46.0595 11.2081C45.9117 11.5931 45.6873 11.9441 45.4 12.24C45.0986 12.5317 44.7411 12.7592 44.3492 12.9088C43.9573 13.0583 43.5391 13.1268 43.12 13.11ZM41.38 12.91H43.12C43.5122 12.9273 43.9038 12.8654 44.2715 12.728C44.6392 12.5905 44.9754 12.3803 45.26 12.11C45.5277 11.8318 45.7366 11.5024 45.8741 11.1415C46.0115 10.7807 46.0748 10.3958 46.06 10.01C46.0757 9.62553 46.0129 9.2419 45.8754 8.88255C45.7378 8.5232 45.5284 8.19567 45.26 7.91998C44.9772 7.64641 44.6416 7.43345 44.2736 7.29417C43.9056 7.15489 43.513 7.09221 43.12 7.10998H41.38V12.91ZM43.12 12.37H42V7.64998H43.17C43.4807 7.63349 43.7913 7.68339 44.0812 7.79635C44.3711 7.9093 44.6336 8.08273 44.8512 8.30508C45.0688 8.52743 45.2366 8.79359 45.3433 9.08584C45.45 9.37809 45.4932 9.68973 45.47 9.99998C45.4875 10.3183 45.4397 10.6369 45.3297 10.9361C45.2196 11.2353 45.0496 11.5088 44.83 11.74C44.601 11.9531 44.3318 12.1185 44.0383 12.2267C43.7447 12.3348 43.4326 12.3836 43.12 12.37ZM42.12 12.17H43.12C43.4057 12.1847 43.6915 12.1428 43.9609 12.0467C44.2303 11.9506 44.4781 11.8022 44.69 11.61C44.89 11.3965 45.0445 11.1445 45.1442 10.8695C45.2439 10.5945 45.2867 10.3021 45.27 10.01C45.2859 9.7195 45.2427 9.42881 45.143 9.15551C45.0433 8.88221 44.8892 8.63198 44.69 8.41998C44.4802 8.22409 44.233 8.07262 43.9632 7.97467C43.6934 7.87672 43.4066 7.83431 43.12 7.84998H42.12V12.17Z" fill="black"/>
<path d="M47.24 13V7H48V13H47.24Z" fill="black"/>
<path d="M48.11 13.11H47.11V6.90997H48.11V13.11ZM47.34 12.91H47.91V7.10997H47.34V12.91Z" fill="black"/>
<path d="M51.08 13.15C50.6195 13.1405 50.1729 12.9904 49.8 12.72C49.3858 12.437 49.0932 12.0087 48.98 11.52L49.69 11.24C49.7708 11.5624 49.9489 11.8522 50.2 12.07C50.4419 12.2871 50.755 12.408 51.08 12.41C51.3886 12.4173 51.6909 12.3224 51.94 12.14C52.0522 12.0595 52.1428 11.9527 52.2039 11.8288C52.2649 11.705 52.2945 11.568 52.29 11.43C52.2983 11.2815 52.2708 11.1331 52.2099 10.9974C52.149 10.8617 52.0564 10.7425 51.94 10.65C51.5943 10.4207 51.2122 10.2516 50.81 10.15C50.3632 10.0262 49.9498 9.80414 49.6 9.50001C49.4683 9.36914 49.3642 9.21324 49.2938 9.04149C49.2234 8.86974 49.1881 8.68562 49.19 8.50001C49.189 8.28756 49.2341 8.07742 49.3221 7.88407C49.4102 7.69072 49.5391 7.51875 49.7 7.38001C50.0596 7.08705 50.5048 6.91889 50.9683 6.90085C51.4318 6.88281 51.8886 7.01588 52.27 7.28001C52.558 7.48543 52.7747 7.77557 52.89 8.11001L52.19 8.41001C52.1287 8.19725 51.9986 8.01084 51.82 7.88001C51.5954 7.72387 51.3285 7.64018 51.055 7.64018C50.7815 7.64018 50.5145 7.72387 50.29 7.88001C50.1928 7.95137 50.1141 8.0448 50.0602 8.15261C50.0063 8.26041 49.9788 8.37948 49.98 8.50001C49.9811 8.60953 50.008 8.71725 50.0583 8.81451C50.1087 8.91177 50.1812 8.99586 50.27 9.06001C50.5237 9.25337 50.8123 9.39597 51.12 9.48001C51.3721 9.55827 51.6192 9.65178 51.86 9.76001C52.0744 9.85005 52.2761 9.96771 52.46 10.11C52.6601 10.2485 52.819 10.4386 52.92 10.66C53.0314 10.9011 53.0861 11.1645 53.08 11.43C53.0845 11.7008 53.0227 11.9686 52.9 12.21C52.7874 12.4298 52.6226 12.6187 52.42 12.76C52.2219 12.8898 52.0064 12.9908 51.78 13.06C51.5524 13.1246 51.3165 13.155 51.08 13.15Z" fill="black"/>
<path d="M51.08 13.25C50.5974 13.243 50.129 13.0857 49.74 12.8C49.3083 12.4999 49.0022 12.0514 48.88 11.54V11.46L49.77 11.1V11.21C49.8456 11.5158 50.0173 11.7892 50.26 11.99C50.4782 12.1978 50.7687 12.3126 51.07 12.31C51.3573 12.3196 51.6393 12.2314 51.87 12.06C51.9705 11.9895 52.0515 11.8948 52.1057 11.7847C52.1599 11.6746 52.1855 11.5526 52.18 11.43C52.1889 11.2959 52.1643 11.1617 52.1085 11.0396C52.0526 10.9174 51.9672 10.811 51.86 10.73C51.5273 10.5057 51.1586 10.34 50.77 10.24C50.3092 10.1111 49.8825 9.88234 49.52 9.56999C49.3761 9.42799 49.2628 9.25801 49.1871 9.07054C49.1115 8.88307 49.075 8.68209 49.08 8.47999C49.0798 8.25311 49.1278 8.02879 49.2209 7.8219C49.314 7.61501 49.4501 7.43029 49.62 7.27999C50.0051 6.93963 50.5064 6.76058 51.02 6.77999C51.4901 6.75498 51.954 6.89662 52.33 7.17999C52.6287 7.40282 52.8548 7.70899 52.98 8.05999V8.14999L52.08 8.51999V8.40999C52.0231 8.21939 51.9032 8.05372 51.74 7.93999C51.543 7.7806 51.2928 7.70197 51.04 7.71999C50.7884 7.71104 50.5413 7.7887 50.34 7.93999C50.2559 8.00259 50.1876 8.08406 50.1407 8.17785C50.0938 8.27164 50.0696 8.37513 50.07 8.47999C50.0704 8.57553 50.0932 8.66966 50.1366 8.75477C50.1801 8.83988 50.2429 8.9136 50.32 8.96999C50.5685 9.1469 50.846 9.2789 51.14 9.35999C51.44 9.45999 51.69 9.54999 51.89 9.63999C52.1081 9.74309 52.3157 9.867 52.51 10.01C52.7205 10.1622 52.889 10.3651 53 10.6C53.1158 10.8541 53.1739 11.1307 53.17 11.41C53.1721 11.6977 53.107 11.9819 52.98 12.24C52.8571 12.4701 52.6825 12.6686 52.47 12.82C52.2622 12.9565 52.0368 13.0641 51.8 13.14C51.5664 13.2105 51.324 13.2476 51.08 13.25ZM49.08 11.58C49.1979 12.0131 49.4677 12.3893 49.84 12.64C50.1103 12.8328 50.4213 12.961 50.749 13.0148C51.0766 13.0685 51.4123 13.0464 51.73 12.95C51.947 12.8806 52.1526 12.7795 52.34 12.65C52.5343 12.5248 52.69 12.3483 52.79 12.14C52.9048 11.9139 52.9631 11.6635 52.96 11.41C52.9659 11.1617 52.9145 10.9153 52.81 10.69C52.7162 10.481 52.5676 10.3014 52.38 10.17C52.2004 10.0347 52.0058 9.92061 51.8 9.82999C51.5616 9.72424 51.318 9.63078 51.07 9.54999C50.7527 9.46214 50.4543 9.31635 50.19 9.11999C50.0882 9.04709 50.0052 8.95104 49.9478 8.83977C49.8905 8.7285 49.8604 8.60518 49.86 8.47999C49.8604 8.34421 49.8922 8.21037 49.9529 8.08894C50.0136 7.9675 50.1016 7.86176 50.21 7.77999C50.4473 7.60556 50.7355 7.51418 51.03 7.51999C51.3291 7.50268 51.6242 7.59513 51.86 7.77999C52.0226 7.90127 52.1503 8.06342 52.23 8.24999L52.77 7.99999C52.6485 7.72126 52.4553 7.47972 52.21 7.29999C51.8542 7.06145 51.426 6.95529 51 6.99999C50.5375 6.98042 50.0855 7.14184 49.74 7.44999C49.5889 7.57996 49.4678 7.74112 49.3849 7.92238C49.3021 8.10363 49.2594 8.30069 49.26 8.49999C49.2516 8.67483 49.2812 8.84942 49.3468 9.01171C49.4124 9.174 49.5124 9.32012 49.64 9.43999C49.9751 9.73893 50.376 9.95476 50.81 10.07C51.2234 10.176 51.6157 10.3519 51.97 10.59C52.1008 10.6901 52.2049 10.821 52.2729 10.9711C52.3409 11.1211 52.3709 11.2856 52.36 11.45C52.3612 11.6044 52.3266 11.757 52.2589 11.8958C52.1912 12.0346 52.0924 12.1558 51.97 12.25C51.6996 12.436 51.3782 12.5339 51.05 12.53C50.6979 12.5314 50.3584 12.3992 50.1 12.16C49.8637 11.9539 49.6875 11.6879 49.59 11.39L49.08 11.58Z" fill="black"/>
<path d="M55 13H54.23V6.99997H56.23C56.7196 6.99157 57.1932 7.17454 57.55 7.50997C57.7307 7.66981 57.8745 7.86713 57.9712 8.08819C58.0679 8.30925 58.1153 8.54874 58.11 8.78997C58.1152 9.02973 58.0677 9.26771 57.971 9.48714C57.8742 9.70656 57.7305 9.9021 57.55 10.06C57.1932 10.3954 56.7196 10.5784 56.23 10.57H55V13ZM55 9.82997H56.29C56.423 9.82812 56.5543 9.79975 56.6762 9.74652C56.7981 9.69329 56.9082 9.61627 57 9.51997C57.1817 9.32369 57.2849 9.06743 57.29 8.79997C57.2921 8.66669 57.2675 8.53433 57.2177 8.41069C57.1679 8.28704 57.0939 8.1746 57 8.07997C56.902 7.97124 56.7814 7.88534 56.6466 7.82832C56.5119 7.7713 56.3662 7.74455 56.22 7.74997H55V9.82997Z" fill="black"/>
<path d="M55.06 13.11H54.06V6.91001H56.2C56.7142 6.90138 57.212 7.09119 57.59 7.44001C57.7798 7.6114 57.9306 7.82147 58.0324 8.05606C58.1342 8.29066 58.1845 8.54433 58.18 8.80001C58.1844 9.05421 58.1339 9.30636 58.0321 9.53931C57.9303 9.77227 57.7795 9.98056 57.59 10.15C57.212 10.4988 56.7142 10.6886 56.2 10.68H55.06V13.11ZM54.29 12.91H54.86V10.48H56.23C56.6929 10.4867 57.1406 10.3148 57.48 10C57.6505 9.8513 57.7857 9.6664 57.8757 9.4588C57.9656 9.25119 58.0081 9.02612 58 8.80001C58.0069 8.57164 57.963 8.34458 57.8713 8.1353C57.7797 7.92601 57.6426 7.73975 57.47 7.59001C57.1306 7.27522 56.6829 7.10332 56.22 7.11001H54.29V12.91ZM56.29 9.91001H54.86V7.65001H56.25C56.4087 7.64223 56.5672 7.66956 56.7141 7.73006C56.861 7.79056 56.9928 7.88274 57.1 8.00001C57.3022 8.21374 57.4165 8.49581 57.42 8.79001C57.4159 9.08115 57.3016 9.3599 57.1 9.57001C56.9947 9.69092 56.8637 9.78685 56.7167 9.85085C56.5697 9.91485 56.4103 9.94531 56.25 9.94001L56.29 9.91001ZM55.1 9.71001H56.29C56.4208 9.71616 56.5514 9.69335 56.6724 9.64322C56.7934 9.59309 56.9018 9.51688 56.99 9.42001C57.1608 9.24649 57.2576 9.01347 57.26 8.77001C57.2498 8.53605 57.1578 8.31309 57 8.14001C56.9106 8.04474 56.8019 7.96961 56.6812 7.9196C56.5605 7.8696 56.4306 7.84588 56.3 7.85001H55.06L55.1 9.71001Z" fill="black"/>
<path d="M64 12.24C63.7148 12.5338 63.3725 12.7661 62.9941 12.9226C62.6158 13.0791 62.2094 13.1565 61.8 13.15C61.3906 13.1565 60.9842 13.0791 60.6058 12.9226C60.2275 12.7661 59.8852 12.5338 59.6 12.24C59.3073 11.9462 59.0768 11.5964 58.9222 11.2115C58.7675 10.8267 58.692 10.4147 58.7 10C58.6881 9.58873 58.7611 9.17941 58.9142 8.79749C59.0673 8.41558 59.2973 8.06925 59.59 7.78002C59.8779 7.49127 60.2201 7.26217 60.5967 7.10586C60.9734 6.94954 61.3772 6.86908 61.785 6.86908C62.1928 6.86908 62.5966 6.94954 62.9732 7.10586C63.3499 7.26217 63.692 7.49127 63.98 7.78002C64.2689 8.07202 64.4964 8.41885 64.6493 8.8001C64.8021 9.18136 64.8771 9.58933 64.87 10C64.8802 10.4124 64.8086 10.8227 64.6593 11.2071C64.5099 11.5916 64.2859 11.9427 64 12.24ZM60.17 11.73C60.3821 11.9456 60.6351 12.1168 60.9141 12.2337C61.193 12.3505 61.4925 12.4107 61.795 12.4107C62.0974 12.4107 62.3969 12.3505 62.6759 12.2337C62.9549 12.1168 63.2078 11.9456 63.42 11.73C63.6429 11.5024 63.8165 11.2314 63.93 10.9337C64.0436 10.6361 64.0946 10.3182 64.08 10C64.0919 9.68274 64.0386 9.36637 63.9234 9.07052C63.8081 8.77466 63.6334 8.50561 63.41 8.28002C62.9775 7.85194 62.3935 7.61181 61.785 7.61181C61.1764 7.61181 60.5925 7.85194 60.16 8.28002C59.9365 8.50561 59.7618 8.77466 59.6465 9.07052C59.5313 9.36637 59.478 9.68274 59.49 10C59.4766 10.319 59.5292 10.6372 59.6445 10.9349C59.7598 11.2326 59.9353 11.5033 60.16 11.73H60.17Z" fill="black"/>
<path d="M61.79 13.25C61.3657 13.2589 60.9442 13.1799 60.5518 13.0182C60.1595 12.8564 59.8048 12.6153 59.51 12.31C59.2135 12.004 58.9804 11.6424 58.8242 11.246C58.668 10.8495 58.5918 10.4261 58.6 10C58.5923 9.57705 58.6688 9.15676 58.825 8.76361C58.9812 8.37047 59.2141 8.01232 59.51 7.71003C59.8081 7.4119 60.162 7.1754 60.5515 7.01405C60.941 6.8527 61.3584 6.76965 61.78 6.76965C62.2016 6.76965 62.6191 6.8527 63.0086 7.01405C63.3981 7.1754 63.7519 7.4119 64.05 7.71003C64.3532 8.00901 64.5934 8.36567 64.7566 8.75896C64.9198 9.15226 65.0025 9.57424 65 10C65.0069 10.4244 64.9301 10.8459 64.7739 11.2406C64.6178 11.6352 64.3854 11.9952 64.09 12.3C63.7942 12.6102 63.4367 12.8549 63.0406 13.0185C62.6445 13.1821 62.2185 13.261 61.79 13.25ZM61.79 6.98003C61.393 6.96845 60.9981 7.04086 60.631 7.19251C60.264 7.34416 59.9331 7.57163 59.66 7.86003C59.3826 8.14236 59.1638 8.4768 59.0162 8.84408C58.8686 9.21136 58.7951 9.60423 58.8 10C58.7924 10.3992 58.8646 10.7958 59.0123 11.1667C59.16 11.5376 59.3802 11.8753 59.66 12.16C59.9387 12.4397 60.2699 12.6616 60.6346 12.813C60.9992 12.9645 61.3902 13.0424 61.785 13.0424C62.1799 13.0424 62.5708 12.9645 62.9355 12.813C63.3001 12.6616 63.6313 12.4397 63.91 12.16C64.1899 11.8753 64.4101 11.5376 64.5578 11.1667C64.7054 10.7958 64.7776 10.3992 64.77 10C64.7763 9.60255 64.7035 9.2078 64.5558 8.83871C64.4082 8.46962 64.1887 8.13355 63.91 7.85003C63.6344 7.56981 63.3037 7.34964 62.9389 7.20336C62.5741 7.05708 62.1829 6.98785 61.79 7.00003V6.98003ZM61.79 12.51C61.4716 12.5148 61.1556 12.4543 60.8615 12.3322C60.5674 12.2101 60.3014 12.0289 60.08 11.8C59.8488 11.5626 59.6684 11.2805 59.5497 10.9711C59.4311 10.6616 59.3768 10.3312 59.39 10C59.3793 9.67066 59.4348 9.34249 59.5533 9.035C59.6719 8.72751 59.851 8.44696 60.08 8.21003C60.5346 7.76238 61.147 7.51147 61.785 7.51147C62.423 7.51147 63.0354 7.76238 63.49 8.21003C63.7191 8.44696 63.8982 8.72751 64.0167 9.035C64.1352 9.34249 64.1908 9.67066 64.18 10C64.1919 10.3295 64.1369 10.658 64.0183 10.9657C63.8997 11.2733 63.72 11.5538 63.49 11.79C63.2714 12.0205 63.0076 12.2034 62.7151 12.3272C62.4226 12.4511 62.1077 12.5134 61.79 12.51ZM60.23 11.66C60.4336 11.8653 60.6758 12.0283 60.9427 12.1395C61.2096 12.2507 61.4959 12.3079 61.785 12.3079C62.0742 12.3079 62.3604 12.2507 62.6273 12.1395C62.8942 12.0283 63.1364 11.8653 63.34 11.66C63.5585 11.4438 63.7299 11.1847 63.8435 10.899C63.9571 10.6133 64.0104 10.3073 64 10C64.0116 9.69588 63.9608 9.39259 63.8507 9.10882C63.7406 8.82505 63.5737 8.56682 63.36 8.35003C62.9462 7.94027 62.3874 7.7104 61.805 7.7104C61.2227 7.7104 60.6638 7.94027 60.25 8.35003C60.0328 8.56513 59.8621 8.8226 59.7486 9.10644C59.635 9.39029 59.5811 9.69445 59.59 10C59.5785 10.3042 59.6293 10.6075 59.7393 10.8912C59.8494 11.175 60.0164 11.4332 60.23 11.65V11.66Z" fill="black"/>
<path d="M66 13V7H66.94L69.86 11.67V10.51V7H70.63V13H69.82L66.82 8.11V9.26V13H66Z" fill="black"/>
<path d="M70.68 13.11H69.68L66.8 8.42997V9.26997V13.11H65.8V6.90997H67L69.78 11.37V10.53V6.90997H70.78L70.68 13.11ZM69.83 12.91H70.48V7.10997H69.91V10.52V11.78H69.72L66.83 7.10997H66.05V12.91H66.62V9.26997V8.01997H66.81V8.06997L69.83 12.91Z" fill="black"/>
<path d="M72 13V7H72.77V13H72Z" fill="black"/>
<path d="M72.82 13.11H71.82V6.90997H72.82V13.11ZM72.05 12.91H72.62V7.10997H72.05V12.91Z" fill="black"/>
<path d="M74.1 13V7H76.27C76.7215 6.99624 77.1576 7.16425 77.49 7.47C77.656 7.61748 77.7878 7.79957 77.8759 8.00343C77.964 8.2073 78.0063 8.428 78 8.65C78.0053 8.91665 77.9285 9.17849 77.78 9.4C77.6324 9.61471 77.4281 9.78432 77.19 9.89C77.48 9.98602 77.7344 10.1672 77.92 10.41C78.108 10.6529 78.2068 10.953 78.2 11.26C78.2045 11.4919 78.1586 11.722 78.0653 11.9344C77.9721 12.1468 77.8338 12.3364 77.66 12.49C77.3092 12.8058 76.8519 12.9773 76.38 12.97L74.1 13ZM74.87 9.57H76.27C76.4008 9.57615 76.5314 9.55334 76.6524 9.50321C76.7734 9.45308 76.8818 9.37687 76.97 9.28C77.0578 9.19903 77.1285 9.1012 77.1777 8.99234C77.227 8.88348 77.2538 8.76582 77.2566 8.64637C77.2594 8.52692 77.2381 8.40813 77.194 8.29708C77.15 8.18603 77.084 8.085 77 8C76.9159 7.90674 76.8122 7.83327 76.6964 7.78485C76.5805 7.73644 76.4554 7.71429 76.33 7.72H74.87V9.57ZM74.87 12.26H76.42C76.5554 12.2645 76.6902 12.2391 76.8146 12.1855C76.9391 12.1319 77.0502 12.0515 77.14 11.95C77.3103 11.7681 77.4066 11.5292 77.41 11.28C77.4064 11.026 77.3063 10.7829 77.13 10.6C77.0336 10.4988 76.917 10.4189 76.7878 10.3655C76.6587 10.3121 76.5197 10.2864 76.38 10.29H74.87V12.26Z" fill="black"/>
<path d="M76.38 13.11H74V6.91003H76.27C76.7431 6.90647 77.2002 7.08144 77.55 7.40003C77.7282 7.55489 77.87 7.74728 77.9651 7.9634C78.0602 8.17951 78.1062 8.414 78.1 8.65003C78.1036 8.90271 78.0397 9.15177 77.9149 9.37151C77.7901 9.59125 77.6089 9.7737 77.39 9.90003C77.6308 10.0104 77.8404 10.1787 78 10.39C78.1995 10.651 78.3052 10.9716 78.3 11.3C78.3056 11.5452 78.2575 11.7886 78.159 12.0132C78.0606 12.2378 77.9141 12.4381 77.73 12.6C77.3592 12.9321 76.8778 13.114 76.38 13.11ZM74.2 12.91H76.38C76.8277 12.9191 77.2614 12.7542 77.59 12.45C77.7565 12.3094 77.8889 12.1329 77.9772 11.9337C78.0656 11.7345 78.1075 11.5178 78.1 11.3C78.1029 11.0152 78.0115 10.7374 77.84 10.51C77.6641 10.2858 77.4284 10.1159 77.16 10.02H77.09V9.83003H77.15C77.3712 9.72865 77.5611 9.5698 77.7 9.37003C77.8333 9.1648 77.9029 8.92472 77.9 8.68003C77.9058 8.47265 77.8659 8.26655 77.7829 8.07641C77.6999 7.88627 77.576 7.71678 77.42 7.58003C77.1056 7.29397 76.695 7.13686 76.27 7.14003H74.2V12.91ZM76.42 12.37H74.77V10.2H76.38C76.533 10.1954 76.6852 10.2233 76.8265 10.2819C76.9679 10.3405 77.0952 10.4285 77.2 10.54C77.2988 10.6382 77.3772 10.7551 77.4304 10.8839C77.4836 11.0126 77.5107 11.1507 77.51 11.29C77.5082 11.566 77.4009 11.8307 77.21 12.03C77.1119 12.1419 76.9901 12.2305 76.8534 12.2893C76.7167 12.3481 76.5687 12.3757 76.42 12.37ZM75 12.17H76.45C76.57 12.1753 76.6897 12.1538 76.8004 12.1071C76.9111 12.0604 77.01 11.9897 77.09 11.9C77.2483 11.7362 77.3378 11.5179 77.34 11.29C77.3399 11.0618 77.2501 10.8427 77.09 10.68C77.0036 10.5871 76.898 10.5139 76.7806 10.4656C76.6633 10.4173 76.5368 10.3949 76.41 10.4H75V12.17ZM76.3 9.68003H74.8V7.68003H76.3C76.4405 7.67769 76.5799 7.70497 76.7091 7.76011C76.8383 7.81525 76.9545 7.89699 77.05 8.00003C77.2287 8.1854 77.329 8.43256 77.33 8.69003C77.3289 8.95237 77.2247 9.20377 77.04 9.39003C76.9396 9.49022 76.819 9.56789 76.6862 9.61789C76.5535 9.66789 76.4116 9.68907 76.27 9.68003H76.3ZM75 9.48003H76.3C76.4153 9.48621 76.5306 9.46703 76.6377 9.42384C76.7449 9.38065 76.8412 9.31449 76.92 9.23003C77.0704 9.07804 77.1564 8.87385 77.16 8.66003C77.1556 8.45126 77.0736 8.25162 76.93 8.10003C76.8547 8.01658 76.7618 7.95088 76.6581 7.90765C76.5543 7.86442 76.4423 7.84474 76.33 7.85003H75V9.48003Z" fill="black"/>
<path d="M79.24 13V7H80V12.26H82.6V13H79.24Z" fill="black"/>
<path d="M82.71 13.11H79.14V6.90997H80.14V12.17H82.74L82.71 13.11ZM79.34 12.91H82.51V12.37H79.91V7.10997H79.34V12.91Z" fill="black"/>
<path d="M87.08 7.75H84.35V9.65H86.82V10.37H84.35V12.27H87.08V13H83.58V7H87.08V7.75Z" fill="black"/>
<path d="M87.18 13.11H83.48V6.90997H87.18V7.84997H84.45V9.54997H86.92V10.47H84.45V12.17H87.18V13.11ZM83.68 12.91H87V12.37H84.25V10.27H86.72V9.74997H84.25V7.64997H87V7.10997H83.68V12.91Z" fill="black"/>
<path d="M93.81 7.75H91.07V9.65H93.54V10.37H91.07V12.27H93.81V13H90.3V7H93.81V7.75Z" fill="black"/>
<path d="M93.91 13.11H90.2V6.90997H93.91V7.84997H91.17V9.54997H93.64V10.47H91.17V12.17H93.91V13.11ZM90.4 12.91H93.71V12.37H91V10.27H93.47V9.74997H91V7.64997H93.74V7.10997H90.4V12.91Z" fill="black"/>
<path d="M95 13V7H96L98.92 11.67V10.51V7H99.69V13H98.88L95.88 8.11V9.26V13H95Z" fill="black"/>
<path d="M99.74 13.11H98.74L95.86 8.42997V9.26997V13.11H94.86V6.90997H96L98.78 11.37V10.53V6.90997H99.78L99.74 13.11ZM98.89 12.91H99.54V7.10997H99V10.52V11.78H98.81L95.89 7.10997H95.11V12.91H95.68V9.26997V8.01997H95.87V8.06997L98.89 12.91Z" fill="black"/>
</g>
<defs>
<linearGradient id="paint0_linear" x1="21.8" y1="8.72998" x2="5.02003" y2="25.51" gradientUnits="userSpaceOnUse">
<stop stop-color="#00A0FF"/>
<stop offset="0.01" stop-color="#00A1FF"/>
<stop offset="0.26" stop-color="#00BEFF"/>
<stop offset="0.51" stop-color="#00D2FF"/>
<stop offset="0.76" stop-color="#00DFFF"/>
<stop offset="1" stop-color="#00E3FF"/>
</linearGradient>
<linearGradient id="paint1_linear" x1="33.83" y1="20.02" x2="9.64002" y2="20.02" gradientUnits="userSpaceOnUse">
<stop stop-color="#FFE000"/>
<stop offset="0.41" stop-color="#FFBD00"/>
<stop offset="0.78" stop-color="#FFA500"/>
<stop offset="1" stop-color="#FF9C00"/>
</linearGradient>
<linearGradient id="paint2_linear" x1="24.83" y1="22.31" x2="2.07" y2="45.07" gradientUnits="userSpaceOnUse">
<stop stop-color="#FF3A44"/>
<stop offset="1" stop-color="#C31162"/>
</linearGradient>
<linearGradient id="paint3_linear" x1="7.3" y1="0.189979" x2="17.46" y2="10.36" gradientUnits="userSpaceOnUse">
<stop stop-color="#32A071"/>
<stop offset="0.07" stop-color="#2DA771"/>
<stop offset="0.48" stop-color="#15CF74"/>
<stop offset="0.8" stop-color="#06E775"/>
<stop offset="1" stop-color="#00F076"/>
</linearGradient>
<clipPath id="clip0">
<rect width="135" height="40.01" fill="white"/>
</clipPath>
</defs>
</svg>
