<svg width="118" height="29" viewBox="0 0 118 29" fill="none" xmlns="http://www.w3.org/2000/svg">
<path d="M5.57695 13.9857C5.57695 14.3437 6.16173 14.5906 6.49425 14.4615L8.02615 13.8792C8.43206 13.7274 8.48481 13.3989 8.48481 12.973V10.7073C9.46945 10.4547 10.3626 9.93422 11.0627 9.20507C11.7629 8.47591 12.2419 7.56734 12.4454 6.58261C12.6489 5.59788 12.5687 4.5765 12.2139 3.63456C11.8591 2.69262 11.244 1.86791 10.4384 1.25416C9.63279 0.640417 8.66908 0.262259 7.65678 0.16267C6.64448 0.0630814 5.6242 0.246057 4.71192 0.6908C3.79964 1.13554 3.03194 1.82421 2.4961 2.67853C1.96025 3.53285 1.67774 4.51855 1.68069 5.52359C1.68069 5.61648 1.68069 5.71163 1.68069 5.80452C1.69484 6.06804 1.72934 6.3301 1.78388 6.58843C1.78388 6.61788 1.78388 6.64734 1.79994 6.67906C2.23336 8.64109 3.6162 10.2066 5.56777 10.7164L5.57695 13.9857ZM7.10885 8.33523C6.56457 8.33523 6.03251 8.17578 5.57996 7.87704C5.12741 7.5783 4.77469 7.15368 4.56641 6.6569C4.35812 6.16011 4.30362 5.61346 4.40981 5.08608C4.51599 4.55869 4.77808 4.07426 5.16295 3.69403C5.54781 3.31381 6.03816 3.05487 6.57198 2.94997C7.1058 2.84506 7.65911 2.8989 8.16196 3.10468C8.66481 3.31046 9.0946 3.65893 9.39699 4.10602C9.69937 4.55312 9.86077 5.07876 9.86077 5.61648C9.86077 6.33754 9.57083 7.02906 9.05475 7.53892C8.53866 8.04879 7.8387 8.33523 7.10885 8.33523Z" fill="#FF5500"/>
<path d="M8.47133 15.5286V17.5382C8.47133 18.159 8.30621 18.3765 7.71914 18.6008L3.72656 20.0757C3.17847 20.2841 2.70376 20.3227 2.32767 20.1233L0.951707 19.5342C0.433429 19.3303 0.408203 18.9837 0.408203 18.4309V18.0231C0.408203 17.4476 0.807231 17.2799 1.35074 17.0783L7.51274 14.8127C8.15256 14.577 8.47133 14.8512 8.47133 15.5286Z" fill="#FF5500"/>
<path d="M8.47167 19.9488V22.5044C8.48536 22.6503 8.447 22.7962 8.36324 22.917C8.27948 23.0378 8.15559 23.1259 8.01302 23.166L3.29577 24.872C3.15377 24.9359 2.99905 24.9674 2.84305 24.9643C2.68705 24.9612 2.53376 24.9234 2.39452 24.8539L0.789229 24.2263C0.676114 24.1815 0.579178 24.1042 0.510918 24.0045C0.442658 23.9048 0.406203 23.7871 0.406253 23.6667V22.4704C0.405853 22.3479 0.443434 22.2281 0.513945 22.1273C0.584457 22.0264 0.684522 21.9493 0.800695 21.9063L7.65068 19.3847C7.74279 19.3511 7.84173 19.34 7.9391 19.3523C8.03647 19.3647 8.12939 19.4 8.20998 19.4554C8.29057 19.5108 8.35644 19.5845 8.402 19.6704C8.44755 19.7563 8.47146 19.8518 8.47167 19.9488Z" fill="#FF5500"/>
<path d="M8.5288 24.5118L8.49899 26.8635C8.49899 27.294 8.26966 27.4005 7.87063 27.2306L4.87333 25.9618C4.36881 25.7488 4.3413 25.1575 5.10266 24.9921L7.87063 23.9885C8.27195 23.8389 8.5288 24.0904 8.5288 24.5118Z" fill="#FF5500"/>
<path d="M28.8333 12.658C28.2219 12.0586 27.4962 11.585 26.6983 11.2647C25.9275 10.9524 25.1027 10.7908 24.2697 10.7889C23.6705 10.7817 23.0739 10.8673 22.5016 11.0426C21.995 11.201 21.5116 11.4241 21.0637 11.7065C20.6332 11.9839 20.2395 12.3135 19.8918 12.6875C19.7084 12.8846 19.5318 13.0885 19.3621 13.2947V11.0698H16.9175V28.8459H19.3621V22.6562C19.5226 22.8488 19.6923 23.0368 19.8712 23.2181C20.2222 23.5727 20.6148 23.8845 21.0408 24.147C21.4943 24.4232 21.9833 24.6381 22.4947 24.7859C23.0715 24.9505 23.6694 25.0314 24.2697 25.0261C25.1133 25.0247 25.9482 24.8576 26.7258 24.5344C27.5199 24.2094 28.2409 23.7319 28.847 23.1297C29.4848 22.4877 29.9895 21.7289 30.3331 20.8958C30.7206 19.9436 30.9116 18.9245 30.8949 17.8984C30.9121 16.8693 30.7211 15.8471 30.3331 14.8919C29.9876 14.0566 29.4778 13.2974 28.8333 12.658ZM28.0375 19.9941C27.8221 20.5625 27.4947 21.083 27.0744 21.5257C26.6722 21.9356 26.1869 22.2568 25.6502 22.4682C24.5401 22.911 23.2978 22.902 22.1943 22.4432C21.6412 22.2089 21.1373 21.8747 20.7082 21.4577C20.2593 21.0186 19.9059 20.4936 19.6694 19.9148C19.4085 19.2742 19.2784 18.5889 19.2864 17.8984C19.2772 17.2122 19.4075 16.5312 19.6694 15.8956C19.9071 15.3208 20.2605 14.7998 20.7082 14.364C21.1364 13.9431 21.6404 13.605 22.1943 13.3672C22.7342 13.1357 23.3165 13.0161 23.9051 13.016C24.498 13.0129 25.0854 13.1285 25.6319 13.3558C26.1724 13.5834 26.659 13.9198 27.0606 14.3436C27.4835 14.7929 27.8152 15.3182 28.0375 15.8911C28.2863 16.5423 28.4085 17.2341 28.3976 17.9301C28.4072 18.6342 28.2851 19.3339 28.0375 19.9941Z" fill="white"/>
<path d="M35.9743 5.61646H33.5273V24.7519H35.9743V5.61646Z" fill="white"/>
<path d="M48.8946 18.8704C48.9013 19.4196 48.8009 19.965 48.5987 20.4767C48.4168 20.9393 48.1466 21.3631 47.803 21.7251C47.468 22.0703 47.0622 22.3406 46.6128 22.518C46.1315 22.7048 45.6185 22.7986 45.1015 22.7944C43.9824 22.7944 43.1155 22.4591 42.5239 21.7953C41.9322 21.1315 41.6226 20.1912 41.6226 19.0312V11.0698H39.1757V19.5093C39.1673 20.2666 39.2898 21.0198 39.538 21.7364C39.7657 22.3858 40.1264 22.982 40.5975 23.4877C41.0692 23.9821 41.6444 24.3687 42.2831 24.6205C42.9995 24.8972 43.7636 25.0334 44.5328 25.0215C45.7321 25.0215 46.7251 24.7542 47.4865 24.2263C48.0176 23.8596 48.492 23.4184 48.8946 22.9168V24.7293H51.314V11.0698H48.8946V18.8704Z" fill="white"/>
<path d="M62.7505 18.023C62.3058 17.715 61.8224 17.4652 61.3126 17.2799C60.7989 17.0896 60.2738 16.9152 59.7578 16.7634C59.2991 16.6252 58.8726 16.4892 58.4667 16.3555C58.0995 16.2351 57.7434 16.0835 57.4026 15.9024C57.1389 15.7673 56.9051 15.5817 56.7146 15.3564C56.5595 15.1689 56.4781 14.9324 56.4853 14.6903V14.6382C56.4834 14.4051 56.5382 14.1749 56.6452 13.9672C56.7522 13.7594 56.9081 13.58 57.0999 13.4442C57.6084 13.0851 58.2255 12.9077 58.8497 12.9412C59.5047 12.9504 60.1538 13.0652 60.7714 13.2811C61.4425 13.5068 62.0838 13.8111 62.6817 14.1873L62.8744 14.3097L64.021 12.4451L63.8375 12.3273C63.1038 11.862 62.3101 11.4962 61.4778 11.2398C60.6431 10.9745 59.7723 10.837 58.8955 10.8319C58.2524 10.8273 57.6125 10.9221 56.999 11.1129C56.4428 11.2831 55.925 11.5578 55.474 11.9217C55.0476 12.2696 54.7039 12.7058 54.4672 13.1995C54.2268 13.7151 54.1046 14.2767 54.1095 14.8444V14.8942C54.0891 15.4773 54.2413 16.0537 54.5475 16.5527C54.8337 16.9883 55.2096 17.3596 55.6506 17.6424C56.1115 17.9347 56.6066 18.1705 57.1251 18.3448C57.6526 18.5237 58.1823 18.6914 58.7052 18.8477C59.134 18.9655 59.5537 19.0947 59.9504 19.2284C60.3097 19.3447 60.6562 19.4965 60.9847 19.6815C61.2452 19.8243 61.4738 20.0178 61.6566 20.2502C61.8122 20.4549 61.8931 20.7056 61.886 20.9616V21.0114C61.8956 21.2768 61.8377 21.5403 61.7175 21.7778C61.5973 22.0153 61.4187 22.2192 61.198 22.3708C60.6496 22.7368 59.997 22.9194 59.3358 22.8919C58.552 22.8883 57.7753 22.7456 57.0426 22.4705C56.2488 22.1723 55.5038 21.7601 54.8319 21.247L54.6461 21.1066L53.3779 22.8737L53.5453 23.0052C54.3496 23.6356 55.2539 24.1301 56.2216 24.4687C57.1839 24.8184 58.2004 25.0001 59.2258 25.0057C59.8853 25.011 60.5418 24.917 61.1728 24.727C61.7469 24.5559 62.2825 24.2775 62.7505 23.9069C63.1965 23.5481 63.5606 23.1003 63.8192 22.5928C64.0904 22.0398 64.2248 21.431 64.2113 20.8166V20.7645C64.2283 20.1963 64.0871 19.6344 63.8031 19.14C63.5343 18.6997 63.1758 18.3194 62.7505 18.023Z" fill="white"/>
<path d="M71.7953 21.6843L67.4358 11.0698H64.7412L70.7381 24.8539H72.7975L78.8219 11.0698H76.1777L71.7953 21.6843Z" fill="white"/>
<path d="M91.1687 24.7497V16.4371C91.1687 14.6246 90.6481 13.229 89.6184 12.2933C88.5887 11.3576 87.1233 10.8908 85.2429 10.8908C84.3423 10.8798 83.4439 10.981 82.5689 11.1922C81.7811 11.397 81.0136 11.6715 80.2756 12.0123L80.0899 12.0984L80.8398 14.1375L81.0691 14.0355C81.6719 13.7532 82.298 13.522 82.9404 13.3445C83.626 13.1631 84.3336 13.0754 85.0434 13.084C86.2404 13.084 87.1807 13.3694 87.8343 13.9358C88.4878 14.5022 88.8089 15.3473 88.8089 16.4711V16.6387C88.286 16.5028 87.7471 16.3895 87.2036 16.3011C86.4445 16.1903 85.6777 16.1381 84.9103 16.1448C84.1082 16.1373 83.3085 16.2348 82.5322 16.4348C81.858 16.6069 81.2199 16.8953 80.6472 17.2867C80.1196 17.6544 79.6906 18.1435 79.3973 18.7118C79.0967 19.3209 78.9466 19.9917 78.9593 20.6693C78.9456 21.3391 79.1034 22.0015 79.418 22.5951C79.7166 23.1278 80.1271 23.5913 80.6219 23.9544C81.1272 24.324 81.6959 24.6004 82.3006 24.7701C82.9149 24.9452 83.5509 25.0344 84.1903 25.0351C85.4172 25.0351 86.4537 24.7904 87.2724 24.3124C87.8364 23.9877 88.3539 23.59 88.8112 23.1297V24.7519L91.1687 24.7497ZM88.5039 21.0068C88.2839 21.4168 87.9792 21.7765 87.6095 22.0626C87.2028 22.3726 86.7451 22.6109 86.2565 22.7672C85.7171 22.9424 85.1525 23.0296 84.5847 23.0255C84.1733 23.0276 83.7639 22.9703 83.3693 22.8556C83.0093 22.7523 82.6707 22.5866 82.3694 22.3662C82.0924 22.1627 81.8626 21.9032 81.6952 21.605C81.5272 21.2913 81.4436 20.9402 81.4521 20.5854C81.4381 20.227 81.5146 19.8707 81.6747 19.5487C81.8349 19.2268 82.0736 18.9493 82.3694 18.7412C82.9978 18.2881 83.9242 18.0434 85.1213 18.0434C85.8476 18.0368 86.5729 18.0952 87.2885 18.2179C87.8549 18.3221 88.3686 18.4444 88.8227 18.5532V19.6633C88.8303 20.1303 88.7208 20.5919 88.5039 21.0068Z" fill="white"/>
<path d="M96.8195 5.61646H94.3726V24.7519H96.8195V5.61646Z" fill="white"/>
<path d="M102.858 11.0698H100.411V24.7519H102.858V11.0698Z" fill="white"/>
<path d="M103.011 6.00165H100.28V8.62298H103.011V6.00165Z" fill="white"/>
<path d="M106.915 23.9522C107.42 24.3218 107.988 24.5981 108.593 24.7678C109.207 24.9429 109.844 25.0322 110.483 25.0329C111.71 25.0329 112.746 24.7882 113.565 24.3101C114.129 23.9854 114.646 23.5877 115.104 23.1275V24.7497H117.47V16.4371C117.47 14.6246 116.95 13.229 115.922 12.2933C114.895 11.3576 113.425 10.8908 111.545 10.8908C110.644 10.8798 109.746 10.981 108.871 11.1922C108.083 11.397 107.315 11.6715 106.577 12.0123L106.392 12.0984L107.142 14.1375L107.371 14.0355C107.973 13.7532 108.598 13.522 109.24 13.3445C109.926 13.1631 110.633 13.0754 111.343 13.084C112.54 13.084 113.48 13.3694 114.136 13.9358C114.792 14.5022 115.108 15.3473 115.108 16.4711V16.6387C114.585 16.5028 114.047 16.3895 113.503 16.3011C112.744 16.1903 111.977 16.138 111.21 16.1448C110.408 16.1373 109.608 16.2348 108.832 16.4348C108.157 16.6069 107.519 16.8953 106.947 17.2867C106.419 17.6544 105.99 18.1435 105.697 18.7118C105.398 19.319 105.249 19.9874 105.261 20.6625C105.247 21.3323 105.405 21.9947 105.72 22.5883C106.015 23.1217 106.423 23.5868 106.915 23.9522ZM108.671 18.7412C109.3 18.2881 110.228 18.0434 111.423 18.0434C112.149 18.0368 112.875 18.0952 113.59 18.2179C114.157 18.3243 114.67 18.4444 115.124 18.5532V19.6633C115.131 20.1307 115.02 20.5923 114.801 21.0068C114.582 21.4173 114.277 21.7771 113.907 22.0626C113.501 22.3734 113.043 22.6118 112.554 22.7672C112.014 22.9424 111.45 23.0296 110.882 23.0255C110.471 23.0276 110.061 22.9703 109.666 22.8556C109.306 22.7523 108.968 22.5866 108.667 22.3662C108.39 22.1621 108.16 21.9027 107.992 21.605C107.825 21.2909 107.742 20.9401 107.749 20.5854C107.736 20.2266 107.813 19.87 107.974 19.548C108.135 19.2261 108.375 18.9488 108.671 18.7412Z" fill="white"/>
</svg>
